<svg width="169" height="238" viewBox="0 0 169 238" fill="none" xmlns="http://www.w3.org/2000/svg">
<path d="M74.3516 0.715682C73.953 1.66108 76.0547 2.96622 77.569 5.12474C80.6648 9.55052 79.6664 15.2522 79.1337 18.1762C77.7032 26.233 73.3826 27.17 65.1397 41.8989C62.1824 47.1906 61.3644 49.5123 60.9155 51.0433C59.7116 54.9755 59.0237 60.0915 59.8962 67.0481C59.8962 67.0481 60.5799 74.5778 60.5799 78.4472C60.6596 79.1333 60.8526 79.8904 61.3476 80.0703C62.2663 80.4049 63.94 78.648 64.737 77.1755C67.493 72.1055 61.8006 66.8222 64.4098 60.5642C64.8628 59.464 65.7689 57.8744 66.1758 57.9957C66.4946 58.0919 66.5953 59.2214 66.5953 60.4805C66.5702 62.2375 66.8806 62.0827 67.363 65.6384C68.3026 72.5239 67.6566 76.9329 68.9738 77.3512C70.0602 77.6817 72.0276 75.4814 72.9589 73.1681C74.3264 69.7504 72.8708 67.4873 72.3968 62.2918C71.8472 56.2514 73.0679 51.06 73.5168 51.0684C74.125 51.0684 74.6829 60.6018 74.7752 62.2207C75.1947 69.2819 74.9011 71.7876 75.9624 72.1223C77.2544 72.5406 79.7042 69.4785 80.5767 66.475C81.3863 63.6974 80.3502 62.2626 79.7377 58.5981C78.5128 51.219 79.9055 41.7316 83.6557 36.9837C83.9074 36.6616 84.675 35.7288 84.4946 35.5196C83.9619 34.9172 76.2518 41.4932 75.6142 40.8197C75.2618 40.4474 77.053 37.8413 79.4609 35.8668C80.8703 34.7122 85.6063 30.847 90.4345 32.5203C90.9379 32.696 93.7484 33.679 94.7007 36.1471C95.6907 38.7072 93.6268 40.1211 93.933 44.3042C94.0085 45.3751 94.2267 47.9059 96.0304 50.0226C97.7084 52.0013 100.599 53.3984 101.551 52.5995C102.419 51.8758 101.018 49.8846 100.854 46.743C100.636 42.6812 102.654 39.8073 103.648 37.8914C106.849 31.7297 106.358 22.2632 103.229 15.5785C97.8804 4.14587 85.0526 1.35571 81.9064 0.661302C81.4744 0.565089 75.0018 -0.811173 74.3516 0.715682Z" fill="#FFFF00"/>
<path d="M0.287572 72.8752C1.06781 73.5487 2.95968 71.9549 5.48916 71.2019C10.6656 69.6333 15.7875 72.3523 18.4176 73.7495C25.6495 77.5896 25.2049 81.9819 36.7071 94.3474C40.839 98.7899 42.8064 100.258 44.1236 101.178C47.5004 103.534 52.1692 105.78 59.0739 107.093C59.0739 107.093 66.4652 108.767 70.1525 109.967C70.832 110.101 71.6123 110.151 71.9395 109.741C72.5393 108.972 71.3816 106.842 70.228 105.629C66.2387 101.446 59.4473 105.211 54.2876 100.806C53.3816 100.036 52.1441 98.6895 52.3874 98.3381C52.5761 98.0662 53.6878 98.3046 54.8833 98.7146C56.5612 99.2793 56.4983 98.9363 60.0387 99.5763C66.8973 100.831 70.9159 102.793 71.7088 101.668C72.3632 100.739 70.8698 98.1917 68.9486 96.5937C66.1171 94.2386 63.4953 94.9205 58.4028 93.7659C52.4755 92.4189 47.9157 89.6622 48.0457 89.2355C48.2387 88.6624 57.5009 91.0803 59.0739 91.4903C65.9325 93.2807 68.2354 94.3265 68.8814 93.4229C69.6701 92.3227 67.5181 89.0557 64.9215 87.2987C62.5221 85.6757 60.8316 86.2153 57.1485 85.6589C49.732 84.5462 41.1159 80.2919 37.7474 75.268C37.5167 74.9291 36.8623 73.9126 36.6106 74.013C35.8723 74.3268 39.7567 83.6761 38.9178 84.0526C38.4563 84.2701 36.5225 81.7686 35.3857 78.878C34.7188 77.1797 32.4829 71.4948 35.5871 67.4329C35.9101 67.0146 37.7139 64.6511 40.3608 64.5047C43.1084 64.3583 43.8215 66.7511 47.9115 67.755C48.956 68.0102 51.4393 68.5916 54.0108 67.5333C56.4228 66.5461 58.6461 64.2411 58.1804 63.0908C57.761 62.045 55.4244 62.7561 52.379 61.9446C48.44 60.8946 46.3174 58.0919 44.7989 56.5567C39.9077 51.6164 30.7337 49.1567 23.4053 50.0602C10.8502 51.5996 4.21393 62.9025 2.59053 65.6718C2.33465 66.0692 -0.979267 71.7834 0.287572 72.8752Z" fill="#00AA00"/>
<path d="M47.1732 165.035C48.0541 164.503 47.1229 162.219 47.1732 159.596C47.2739 154.2 51.452 150.184 53.5997 148.118C59.4934 142.45 63.5457 144.227 78.8946 137.141C84.4066 134.594 86.4159 133.18 87.7037 132.213C90.9967 129.741 94.5707 126.006 97.9643 119.865C97.9643 119.865 101.849 113.372 104.131 110.243C104.47 109.641 104.76 108.917 104.466 108.482C103.921 107.675 101.53 108.114 100.016 108.834C94.7972 111.323 96.2863 118.928 90.4891 122.471C89.4739 123.09 87.8086 123.847 87.5527 123.508C87.3514 123.245 87.9218 122.253 88.6769 121.258C89.734 119.852 89.3942 119.794 91.0973 116.631C94.3987 110.515 97.528 107.311 96.7016 106.215C96.0179 105.307 93.1234 105.935 91.0092 107.261C87.8883 109.223 87.7331 111.908 85.0526 116.388C81.9358 121.597 77.892 125.081 77.5312 124.813C77.0446 124.454 82.2127 116.418 83.0894 115.054C86.9193 109.097 88.6224 107.24 87.9638 106.345C87.1584 105.261 83.3788 106.29 80.8997 108.21C78.6135 109.984 78.6009 111.754 76.9356 115.075C73.5797 121.768 66.868 128.624 61.0288 130.268C60.6344 130.377 59.4641 130.687 59.4893 130.958C59.5606 131.757 69.6785 130.958 69.796 131.879C69.8589 132.385 66.8596 133.443 63.7638 133.627C61.9432 133.736 55.8272 134.1 52.9118 129.9C52.6097 129.482 50.915 127.026 51.5988 124.462C52.3077 121.81 54.812 121.873 57.0311 118.313C57.5974 117.401 58.9104 115.226 58.709 112.456C58.516 109.867 57.0017 107.047 55.7726 107.131C54.64 107.211 54.6023 109.641 52.8866 112.281C50.6633 115.69 47.3368 116.836 45.403 117.807C39.1821 120.915 34.0014 128.858 32.592 136.1C30.1799 148.486 38.9094 158.27 41.0488 160.667C41.3172 160.989 45.7386 165.9 47.1732 165.035Z" fill="#8A0094"/>
<path d="M149.359 150.025C149.124 149.026 146.658 149.189 144.158 148.352C139.044 146.587 136.506 141.383 135.202 138.71C131.615 131.364 134.56 128.072 132.547 111.327C131.821 105.316 131.095 102.961 130.571 101.455C129.228 97.5684 126.77 93.0213 121.963 87.9095C121.963 87.9095 116.975 82.2162 114.693 79.083C114.223 78.5769 113.619 78.0791 113.116 78.2255C112.176 78.4932 111.858 80.8944 112.076 82.5509C112.839 88.2693 120.553 89.2105 122.143 95.799C122.424 96.9535 122.63 98.769 122.227 98.9112C121.913 99.02 121.153 98.175 120.428 97.1459C119.413 95.7111 119.253 96.0165 116.766 93.4229C111.95 88.4031 109.861 84.4459 108.56 84.8893C107.482 85.2616 107.189 88.194 107.801 90.6118C108.707 94.1801 111.22 95.1548 114.664 99.0827C118.67 103.647 120.742 108.558 120.377 108.821C119.882 109.173 113.812 101.785 112.785 100.53C108.288 95.0627 107.042 92.8666 105.985 93.218C104.705 93.6363 104.517 97.5517 105.565 100.492C106.551 103.212 108.233 103.768 110.889 106.374C116.229 111.624 120.692 120.116 120.461 126.156C120.461 126.574 120.373 127.771 120.646 127.829C121.426 128.009 123.792 118.166 124.702 118.338C125.21 118.434 125.298 121.592 124.509 124.613C124.052 126.374 122.508 132.289 117.605 133.753C117.093 133.903 114.249 134.757 112.017 133.334C109.706 131.845 110.54 129.49 107.822 126.286C107.126 125.449 105.461 123.546 102.755 122.889C100.238 122.274 97.0666 122.839 96.7646 124.04C96.492 125.135 98.7991 125.926 100.783 128.369C103.351 131.527 103.418 135.037 103.72 137.154C104.764 144.014 110.738 151.376 117.21 154.957C128.276 161.073 140.307 155.819 143.256 154.539C143.692 154.334 149.729 151.657 149.359 150.025Z" fill="#D40005"/>
<path d="M166.34 47.7553C165.312 47.6674 164.721 50.0644 163.127 52.1685C159.863 56.4688 154.116 57.272 151.163 57.6819C143.05 58.8156 140.819 55.0005 124.228 51.7418C118.267 50.5664 115.805 50.5329 114.202 50.5622C110.079 50.6333 104.974 51.5578 98.6228 54.5404C98.6228 54.5404 91.651 57.5104 87.9596 58.7235C87.3303 59.0122 86.6717 59.4305 86.6508 59.9534C86.6172 60.9281 88.8069 61.9738 90.4597 62.275C96.1479 63.3208 99.4282 56.2973 106.203 56.8369C107.39 56.9331 109.185 57.2971 109.194 57.7238C109.194 58.0542 108.162 58.5102 106.958 58.8825C105.28 59.4012 105.515 59.648 102.272 61.2041C95.9801 64.2202 91.5755 64.969 91.6007 66.3494C91.6007 67.4873 94.3273 68.6711 96.819 68.8593C100.502 69.102 102.209 67.0229 107.021 64.969C112.613 62.5804 117.927 62.1328 118.07 62.5595C118.255 63.1368 109.336 66.6088 107.822 67.1986C101.215 69.7713 98.7403 70.2732 98.7487 71.3818C98.7487 72.7329 102.423 74.1134 105.561 74.013C108.456 73.921 109.504 72.4945 112.814 70.7836C119.471 67.3367 128.947 65.7303 134.627 67.8177C135.013 67.96 136.141 68.3992 136.305 68.1607C136.724 67.4747 128.062 62.1872 128.507 61.3757C128.754 60.9281 131.791 61.8191 134.417 63.4965C135.957 64.4754 141.129 67.7675 140.999 72.871C140.999 73.4022 140.919 76.3681 138.86 78.0372C136.725 79.7648 134.736 78.2464 130.843 79.8276C129.845 80.2459 127.487 81.2206 126.04 83.5924C124.673 85.8011 124.232 88.9678 125.285 89.6246C126.246 90.2269 127.714 88.2818 130.655 87.1523C134.459 85.6966 137.828 86.734 139.963 87.0686C146.83 88.1981 155.702 84.8097 161.109 79.7774C170.363 71.1684 169.079 58.1379 168.752 54.942C168.693 54.4609 168.01 47.8975 166.34 47.7553Z" fill="#002BAA"/>
<path d="M21.6324 182.855C17.7061 183.307 17.3034 183.608 17.3034 187.824V206.398C17.3034 213.024 16.2463 216.487 12.8736 219.499C11.488 220.729 9.90566 221.719 8.19218 222.427L7.38678 220.922C8.7038 220.31 9.85091 219.386 10.7282 218.231C11.6056 217.077 12.1866 215.725 12.4206 214.295C12.8736 211.886 12.924 208.974 12.924 204.758V187.824C12.924 183.608 12.4709 183.256 8.3432 182.855V181.449H21.6324V182.855Z" fill="#06A0FF"/>
<path d="M42.9715 214.078V212.672C46.2435 212.254 46.6462 211.769 45.9414 209.861C45.2367 207.954 44.2635 205.394 43.2232 202.231H32.3544C31.549 204.49 30.7939 206.448 30.0892 208.506C28.9817 211.769 29.6697 212.17 33.8142 212.689V214.095H22.1861V212.689C25.3574 212.271 26.1628 211.936 27.9246 207.418L38.3446 181.064L39.9554 180.763C43.1225 189.347 46.5958 198.834 49.7671 207.535C51.3779 211.903 51.831 212.304 55.405 212.706V214.111L42.9715 214.078ZM37.9377 187.306C36.3269 191.623 34.6154 196.191 33.1052 200.156H42.5226L37.9377 187.306Z" fill="#06A0FF"/>
<path d="M85.6582 214.078V212.672C89.7859 212.254 89.9369 211.97 89.8866 206.598L89.9369 186.101C85.8092 195.304 79.1646 209.644 77.4028 214.061H76.094C74.3825 209.493 68.6943 195.689 64.8686 186.603C64.0296 204.172 63.9625 208.138 63.9625 209.092C64.0129 211.903 65.2713 212.304 68.6943 212.656V214.061H56.7684V212.656C59.7048 212.354 60.8961 211.752 61.2988 209.041C61.6008 206.833 61.6512 205.026 62.9558 186.703C63.1571 184.093 62.6579 183.24 58.2282 182.838V181.432H66.9828L78.1075 206.883L90.0376 181.432H98.8468V182.838C94.5177 183.34 93.964 183.792 94.0647 187.306L94.266 206.582C94.4674 211.953 94.6184 212.204 99.0481 212.656V214.061L85.6582 214.078Z" fill="#06A0FF"/>
<path d="M103.599 214.078V212.672C107.727 212.221 108.13 212.02 108.13 207.753V187.824C108.13 183.507 107.71 183.307 103.599 182.855V181.449H117.09V182.855C112.895 183.307 112.509 183.507 112.509 187.824V207.753C112.509 212.07 112.929 212.221 117.09 212.672V214.078H103.599Z" fill="#06A0FF"/>
<path d="M121.952 214.078V212.672C126.08 212.221 126.482 212.02 126.482 207.753V187.824C126.482 183.507 126.063 183.307 121.952 182.855V181.449H135.442V182.855C131.285 183.307 130.866 183.52 130.866 187.824V207.753C130.866 212.07 131.285 212.221 135.447 212.672V214.078H121.952Z" fill="#06A0FF"/>
<path d="M166.451 206.109C166.149 207.414 164.773 212.585 164.286 214.09H139.822V212.685C144.503 212.334 144.856 211.882 144.856 207.766V187.937C144.856 183.47 144.302 183.219 140.527 182.867V181.462H155.93C160.662 181.462 162.642 181.412 163.229 181.361C163.279 182.616 163.481 186.381 163.682 189.042L162.172 189.293C161.827 187.964 161.32 186.683 160.662 185.478C159.856 183.804 158.699 183.47 155.678 183.47H150.896C149.336 183.47 149.218 183.62 149.218 185.076V196.17H154.806C158.581 196.17 158.833 195.417 159.42 191.987H160.981V202.344H159.42C158.766 198.73 158.363 198.228 154.739 198.228H149.202V208.201C149.202 211.714 150.309 212.016 152.826 212.066H157.507C160.578 212.066 161.081 211.614 162.189 210.309C163.145 209.255 164.202 207.197 164.907 205.707L166.451 206.109Z" fill="#06A0FF"/>
<path d="M36.53 226.234L34.51 233.204H33.49L31.87 227.594L30.19 233.204L29.18 233.214L27.23 226.234H28.2L29.72 232.144L31.4 226.234H32.42L34.02 232.124L35.55 226.234H36.53ZM42.5259 230.254C42.5259 230.427 42.5159 230.61 42.4959 230.804H38.1159C38.1492 231.344 38.3325 231.767 38.6659 232.074C39.0059 232.374 39.4159 232.524 39.8959 232.524C40.2892 232.524 40.6159 232.434 40.8759 232.254C41.1425 232.067 41.3292 231.82 41.4359 231.514H42.4159C42.2692 232.04 41.9759 232.47 41.5359 232.804C41.0959 233.13 40.5492 233.294 39.8959 233.294C39.3759 233.294 38.9092 233.177 38.4959 232.944C38.0892 232.71 37.7692 232.38 37.5359 231.954C37.3025 231.52 37.1859 231.02 37.1859 230.454C37.1859 229.887 37.2992 229.39 37.5259 228.964C37.7525 228.537 38.0692 228.21 38.4759 227.984C38.8892 227.75 39.3625 227.634 39.8959 227.634C40.4159 227.634 40.8759 227.747 41.2759 227.974C41.6759 228.2 41.9825 228.514 42.1959 228.914C42.4159 229.307 42.5259 229.754 42.5259 230.254ZM41.5859 230.064C41.5859 229.717 41.5092 229.42 41.3559 229.174C41.2025 228.92 40.9925 228.73 40.7259 228.604C40.4659 228.47 40.1759 228.404 39.8559 228.404C39.3959 228.404 39.0025 228.55 38.6759 228.844C38.3559 229.137 38.1725 229.544 38.1259 230.064H41.5859ZM49.883 229.614C50.1364 229.654 50.3664 229.757 50.573 229.924C50.7864 230.09 50.953 230.297 51.073 230.544C51.1997 230.79 51.263 231.054 51.263 231.334C51.263 231.687 51.173 232.007 50.993 232.294C50.813 232.574 50.5497 232.797 50.203 232.964C49.863 233.124 49.4597 233.204 48.993 233.204H46.393V226.234H48.893C49.3664 226.234 49.7697 226.314 50.103 226.474C50.4364 226.627 50.6864 226.837 50.853 227.104C51.0197 227.37 51.103 227.67 51.103 228.004C51.103 228.417 50.9897 228.76 50.763 229.034C50.543 229.3 50.2497 229.494 49.883 229.614ZM47.303 229.244H48.833C49.2597 229.244 49.5897 229.144 49.823 228.944C50.0564 228.744 50.173 228.467 50.173 228.114C50.173 227.76 50.0564 227.484 49.823 227.284C49.5897 227.084 49.253 226.984 48.813 226.984H47.303V229.244ZM48.913 232.454C49.3664 232.454 49.7197 232.347 49.973 232.134C50.2264 231.92 50.353 231.624 50.353 231.244C50.353 230.857 50.2197 230.554 49.953 230.334C49.6864 230.107 49.3297 229.994 48.883 229.994H47.303V232.454H48.913ZM53.4359 228.614C53.5959 228.3 53.8225 228.057 54.1159 227.884C54.4159 227.71 54.7792 227.624 55.2059 227.624V228.564H54.9659C53.9459 228.564 53.4359 229.117 53.4359 230.224V233.204H52.5259V227.724H53.4359V228.614ZM56.7263 226.834C56.553 226.834 56.4063 226.774 56.2863 226.654C56.1663 226.534 56.1063 226.387 56.1063 226.214C56.1063 226.04 56.1663 225.894 56.2863 225.774C56.4063 225.654 56.553 225.594 56.7263 225.594C56.893 225.594 57.033 225.654 57.1463 225.774C57.2663 225.894 57.3263 226.04 57.3263 226.214C57.3263 226.387 57.2663 226.534 57.1463 226.654C57.033 226.774 56.893 226.834 56.7263 226.834ZM57.1663 227.724V233.204H56.2563V227.724H57.1663ZM61.3873 227.624C62.0539 227.624 62.5939 227.827 63.0073 228.234C63.4206 228.634 63.6273 229.214 63.6273 229.974V233.204H62.7273V230.104C62.7273 229.557 62.5906 229.14 62.3173 228.854C62.0439 228.56 61.6706 228.414 61.1973 228.414C60.7173 228.414 60.3339 228.564 60.0473 228.864C59.7673 229.164 59.6273 229.6 59.6273 230.174V233.204H58.7173V227.724H59.6273V228.504C59.8073 228.224 60.0506 228.007 60.3573 227.854C60.6706 227.7 61.0139 227.624 61.3873 227.624ZM67.3738 227.634C67.8471 227.634 68.2604 227.737 68.6138 227.944C68.9738 228.15 69.2404 228.41 69.4138 228.724V227.724H70.3338V233.324C70.3338 233.824 70.2271 234.267 70.0138 234.654C69.8004 235.047 69.4938 235.354 69.0938 235.574C68.7004 235.794 68.2404 235.904 67.7138 235.904C66.9938 235.904 66.3938 235.734 65.9138 235.394C65.4338 235.054 65.1504 234.59 65.0638 234.004H65.9638C66.0638 234.337 66.2704 234.604 66.5838 234.804C66.8971 235.01 67.2738 235.114 67.7138 235.114C68.2138 235.114 68.6204 234.957 68.9338 234.644C69.2538 234.33 69.4138 233.89 69.4138 233.324V232.174C69.2338 232.494 68.9671 232.76 68.6138 232.974C68.2604 233.187 67.8471 233.294 67.3738 233.294C66.8871 233.294 66.4438 233.174 66.0438 232.934C65.6504 232.694 65.3404 232.357 65.1138 231.924C64.8871 231.49 64.7738 230.997 64.7738 230.444C64.7738 229.884 64.8871 229.394 65.1138 228.974C65.3404 228.547 65.6504 228.217 66.0438 227.984C66.4438 227.75 66.8871 227.634 67.3738 227.634ZM69.4138 230.454C69.4138 230.04 69.3304 229.68 69.1638 229.374C68.9971 229.067 68.7704 228.834 68.4838 228.674C68.2038 228.507 67.8938 228.424 67.5538 228.424C67.2138 228.424 66.9038 228.504 66.6238 228.664C66.3438 228.824 66.1204 229.057 65.9538 229.364C65.7871 229.67 65.7038 230.03 65.7038 230.444C65.7038 230.864 65.7871 231.23 65.9538 231.544C66.1204 231.85 66.3438 232.087 66.6238 232.254C66.9038 232.414 67.2138 232.494 67.5538 232.494C67.8938 232.494 68.2038 232.414 68.4838 232.254C68.7704 232.087 68.9971 231.85 69.1638 231.544C69.3304 231.23 69.4138 230.867 69.4138 230.454ZM76.7076 226.234C77.4676 226.234 78.1242 226.377 78.6776 226.664C79.2376 226.944 79.6642 227.347 79.9576 227.874C80.2576 228.4 80.4076 229.02 80.4076 229.734C80.4076 230.447 80.2576 231.067 79.9576 231.594C79.6642 232.114 79.2376 232.514 78.6776 232.794C78.1242 233.067 77.4676 233.204 76.7076 233.204H74.5376V226.234H76.7076ZM76.7076 232.454C77.6076 232.454 78.2942 232.217 78.7676 231.744C79.2409 231.264 79.4776 230.594 79.4776 229.734C79.4776 228.867 79.2376 228.19 78.7576 227.704C78.2842 227.217 77.6009 226.974 76.7076 226.974H75.4476V232.454H76.7076ZM82.5179 228.614C82.6779 228.3 82.9046 228.057 83.1979 227.884C83.4979 227.71 83.8612 227.624 84.2879 227.624V228.564H84.0479C83.0279 228.564 82.5179 229.117 82.5179 230.224V233.204H81.6079V227.724H82.5179V228.614ZM90.3384 230.254C90.3384 230.427 90.3284 230.61 90.3084 230.804H85.9284C85.9617 231.344 86.145 231.767 86.4784 232.074C86.8184 232.374 87.2284 232.524 87.7084 232.524C88.1017 232.524 88.4284 232.434 88.6884 232.254C88.955 232.067 89.1417 231.82 89.2484 231.514H90.2284C90.0817 232.04 89.7884 232.47 89.3484 232.804C88.9084 233.13 88.3617 233.294 87.7084 233.294C87.1884 233.294 86.7217 233.177 86.3084 232.944C85.9017 232.71 85.5817 232.38 85.3484 231.954C85.115 231.52 84.9984 231.02 84.9984 230.454C84.9984 229.887 85.1117 229.39 85.3384 228.964C85.565 228.537 85.8817 228.21 86.2884 227.984C86.7017 227.75 87.175 227.634 87.7084 227.634C88.2284 227.634 88.6884 227.747 89.0884 227.974C89.4884 228.2 89.795 228.514 90.0084 228.914C90.2284 229.307 90.3384 229.754 90.3384 230.254ZM89.3984 230.064C89.3984 229.717 89.3217 229.42 89.1684 229.174C89.015 228.92 88.805 228.73 88.5384 228.604C88.2784 228.47 87.9884 228.404 87.6684 228.404C87.2084 228.404 86.815 228.55 86.4884 228.844C86.1684 229.137 85.985 229.544 85.9384 230.064H89.3984ZM91.1995 230.444C91.1995 229.884 91.3129 229.394 91.5395 228.974C91.7662 228.547 92.0762 228.217 92.4695 227.984C92.8695 227.75 93.3129 227.634 93.7995 227.634C94.2795 227.634 94.6962 227.737 95.0495 227.944C95.4029 228.15 95.6662 228.41 95.8395 228.724V227.724H96.7595V233.204H95.8395V232.184C95.6595 232.504 95.3895 232.77 95.0295 232.984C94.6762 233.19 94.2629 233.294 93.7895 233.294C93.3029 233.294 92.8629 233.174 92.4695 232.934C92.0762 232.694 91.7662 232.357 91.5395 231.924C91.3129 231.49 91.1995 230.997 91.1995 230.444ZM95.8395 230.454C95.8395 230.04 95.7562 229.68 95.5895 229.374C95.4229 229.067 95.1962 228.834 94.9095 228.674C94.6295 228.507 94.3195 228.424 93.9795 228.424C93.6395 228.424 93.3295 228.504 93.0495 228.664C92.7695 228.824 92.5462 229.057 92.3795 229.364C92.2129 229.67 92.1295 230.03 92.1295 230.444C92.1295 230.864 92.2129 231.23 92.3795 231.544C92.5462 231.85 92.7695 232.087 93.0495 232.254C93.3295 232.414 93.6395 232.494 93.9795 232.494C94.3195 232.494 94.6295 232.414 94.9095 232.254C95.1962 232.087 95.4229 231.85 95.5895 231.544C95.7562 231.23 95.8395 230.867 95.8395 230.454ZM104.887 227.624C105.314 227.624 105.694 227.714 106.027 227.894C106.361 228.067 106.624 228.33 106.817 228.684C107.011 229.037 107.107 229.467 107.107 229.974V233.204H106.207V230.104C106.207 229.557 106.071 229.14 105.797 228.854C105.531 228.56 105.167 228.414 104.707 228.414C104.234 228.414 103.857 228.567 103.577 228.874C103.297 229.174 103.157 229.61 103.157 230.184V233.204H102.257V230.104C102.257 229.557 102.121 229.14 101.847 228.854C101.581 228.56 101.217 228.414 100.757 228.414C100.284 228.414 99.9073 228.567 99.6273 228.874C99.3473 229.174 99.2073 229.61 99.2073 230.184V233.204H98.2973V227.724H99.2073V228.514C99.3873 228.227 99.6273 228.007 99.9273 227.854C100.234 227.7 100.571 227.624 100.937 227.624C101.397 227.624 101.804 227.727 102.157 227.934C102.511 228.14 102.774 228.444 102.947 228.844C103.101 228.457 103.354 228.157 103.707 227.944C104.061 227.73 104.454 227.624 104.887 227.624ZM110.54 233.294C110.12 233.294 109.743 233.224 109.41 233.084C109.077 232.937 108.813 232.737 108.62 232.484C108.427 232.224 108.32 231.927 108.3 231.594H109.24C109.267 231.867 109.393 232.09 109.62 232.264C109.853 232.437 110.157 232.524 110.53 232.524C110.877 232.524 111.15 232.447 111.35 232.294C111.55 232.14 111.65 231.947 111.65 231.714C111.65 231.474 111.543 231.297 111.33 231.184C111.117 231.064 110.787 230.947 110.34 230.834C109.933 230.727 109.6 230.62 109.34 230.514C109.087 230.4 108.867 230.237 108.68 230.024C108.5 229.804 108.41 229.517 108.41 229.164C108.41 228.884 108.493 228.627 108.66 228.394C108.827 228.16 109.063 227.977 109.37 227.844C109.677 227.704 110.027 227.634 110.42 227.634C111.027 227.634 111.517 227.787 111.89 228.094C112.263 228.4 112.463 228.82 112.49 229.354H111.58C111.56 229.067 111.443 228.837 111.23 228.664C111.023 228.49 110.743 228.404 110.39 228.404C110.063 228.404 109.803 228.474 109.61 228.614C109.417 228.754 109.32 228.937 109.32 229.164C109.32 229.344 109.377 229.494 109.49 229.614C109.61 229.727 109.757 229.82 109.93 229.894C110.11 229.96 110.357 230.037 110.67 230.124C111.063 230.23 111.383 230.337 111.63 230.444C111.877 230.544 112.087 230.697 112.26 230.904C112.44 231.11 112.533 231.38 112.54 231.714C112.54 232.014 112.457 232.284 112.29 232.524C112.123 232.764 111.887 232.954 111.58 233.094C111.28 233.227 110.933 233.294 110.54 233.294ZM120.781 226.234V226.974H118.881V233.204H117.971V226.974H116.061V226.234H120.781ZM124.291 233.294C123.778 233.294 123.311 233.177 122.891 232.944C122.478 232.71 122.151 232.38 121.911 231.954C121.678 231.52 121.561 231.02 121.561 230.454C121.561 229.894 121.681 229.4 121.921 228.974C122.168 228.54 122.501 228.21 122.921 227.984C123.341 227.75 123.811 227.634 124.331 227.634C124.851 227.634 125.321 227.75 125.741 227.984C126.161 228.21 126.491 228.537 126.731 228.964C126.978 229.39 127.101 229.887 127.101 230.454C127.101 231.02 126.974 231.52 126.721 231.954C126.474 232.38 126.138 232.71 125.711 232.944C125.284 233.177 124.811 233.294 124.291 233.294ZM124.291 232.494C124.618 232.494 124.924 232.417 125.211 232.264C125.498 232.11 125.728 231.88 125.901 231.574C126.081 231.267 126.171 230.894 126.171 230.454C126.171 230.014 126.084 229.64 125.911 229.334C125.738 229.027 125.511 228.8 125.231 228.654C124.951 228.5 124.648 228.424 124.321 228.424C123.988 228.424 123.681 228.5 123.401 228.654C123.128 228.8 122.908 229.027 122.741 229.334C122.574 229.64 122.491 230.014 122.491 230.454C122.491 230.9 122.571 231.277 122.731 231.584C122.898 231.89 123.118 232.12 123.391 232.274C123.664 232.42 123.964 232.494 124.291 232.494ZM131.873 232.464H134.313V233.204H130.963V226.234H131.873V232.464ZM135.75 226.834C135.576 226.834 135.43 226.774 135.31 226.654C135.19 226.534 135.13 226.387 135.13 226.214C135.13 226.04 135.19 225.894 135.31 225.774C135.43 225.654 135.576 225.594 135.75 225.594C135.916 225.594 136.056 225.654 136.17 225.774C136.29 225.894 136.35 226.04 136.35 226.214C136.35 226.387 136.29 226.534 136.17 226.654C136.056 226.774 135.916 226.834 135.75 226.834ZM136.19 227.724V233.204H135.28V227.724H136.19ZM139.971 228.474H138.821V233.204H137.911V228.474H137.201V227.724H137.911V227.334C137.911 226.72 138.067 226.274 138.381 225.994C138.701 225.707 139.211 225.564 139.911 225.564V226.324C139.511 226.324 139.227 226.404 139.061 226.564C138.901 226.717 138.821 226.974 138.821 227.334V227.724H139.971V228.474ZM146.032 230.254C146.032 230.427 146.022 230.61 146.002 230.804H141.622C141.655 231.344 141.838 231.767 142.172 232.074C142.512 232.374 142.922 232.524 143.402 232.524C143.795 232.524 144.122 232.434 144.382 232.254C144.648 232.067 144.835 231.82 144.942 231.514H145.922C145.775 232.04 145.482 232.47 145.042 232.804C144.602 233.13 144.055 233.294 143.402 233.294C142.882 233.294 142.415 233.177 142.002 232.944C141.595 232.71 141.275 232.38 141.042 231.954C140.808 231.52 140.692 231.02 140.692 230.454C140.692 229.887 140.805 229.39 141.032 228.964C141.258 228.537 141.575 228.21 141.982 227.984C142.395 227.75 142.868 227.634 143.402 227.634C143.922 227.634 144.382 227.747 144.782 227.974C145.182 228.2 145.488 228.514 145.702 228.914C145.922 229.307 146.032 229.754 146.032 230.254ZM145.092 230.064C145.092 229.717 145.015 229.42 144.862 229.174C144.708 228.92 144.498 228.73 144.232 228.604C143.972 228.47 143.682 228.404 143.362 228.404C142.902 228.404 142.508 228.55 142.182 228.844C141.862 229.137 141.678 229.544 141.632 230.064H145.092Z" fill="black"/>
</svg>
