<svg width="169" height="166" viewBox="0 0 169 166" fill="none" xmlns="http://www.w3.org/2000/svg">
<path d="M74.3515 0.715682C73.953 1.66108 76.0546 2.96622 77.5689 5.12474C80.6647 9.55052 79.6663 15.2522 79.1336 18.1762C77.7032 26.233 73.3825 27.17 65.1397 41.8989C62.1823 47.1906 61.3643 49.5123 60.9155 51.0433C59.7115 54.9755 59.0236 60.0915 59.8961 67.0481C59.8961 67.0481 60.5799 74.5778 60.5799 78.4472C60.6596 79.1333 60.8525 79.8904 61.3475 80.0703C62.2662 80.4049 63.9399 78.648 64.737 77.1755C67.493 72.1055 61.8006 66.8222 64.4097 60.5642C64.8628 59.464 65.7689 57.8744 66.1758 57.9957C66.4946 58.0919 66.5953 59.2214 66.5953 60.4805C66.5701 62.2375 66.8805 62.0827 67.3629 65.6384C68.3025 72.5239 67.6565 76.9329 68.9737 77.3512C70.0602 77.6817 72.0276 75.4814 72.9588 73.1681C74.3263 69.7504 72.8707 67.4873 72.3967 62.2918C71.8472 56.2514 73.0679 51.06 73.5167 51.0684C74.125 51.0684 74.6829 60.6018 74.7752 62.2207C75.1947 69.2819 74.901 71.7876 75.9623 72.1223C77.2543 72.5406 79.7041 69.4785 80.5766 66.475C81.3862 63.6974 80.3501 62.2626 79.7377 58.5981C78.5128 51.219 79.9054 41.7316 83.6556 36.9837C83.9073 36.6616 84.675 35.7288 84.4946 35.5196C83.9618 34.9172 76.2518 41.4932 75.6141 40.8197C75.2618 40.4474 77.053 37.8413 79.4608 35.8668C80.8703 34.7122 85.6062 30.847 90.4345 32.5203C90.9378 32.696 93.7484 33.679 94.7006 36.1471C95.6906 38.7072 93.6267 40.1211 93.933 44.3042C94.0085 45.3751 94.2266 47.9059 96.0304 50.0226C97.7083 52.0013 100.599 53.3984 101.551 52.5995C102.419 51.8758 101.018 49.8846 100.854 46.743C100.636 42.6812 102.654 39.8073 103.648 37.8914C106.849 31.7297 106.358 22.2632 103.229 15.5785C97.8803 4.14587 85.0525 1.35571 81.9064 0.661302C81.4743 0.565089 75.0017 -0.811173 74.3515 0.715682Z" fill="#F6B732"/>
<path d="M0.287572 72.8752C1.06781 73.5487 2.95968 71.9549 5.48916 71.2019C10.6656 69.6333 15.7875 72.3523 18.4176 73.7495C25.6495 77.5896 25.2049 81.9819 36.7071 94.3474C40.839 98.7899 42.8064 100.258 44.1236 101.178C47.5004 103.534 52.1692 105.78 59.0739 107.093C59.0739 107.093 66.4652 108.767 70.1525 109.967C70.832 110.101 71.6123 110.151 71.9395 109.741C72.5393 108.972 71.3816 106.842 70.228 105.629C66.2387 101.446 59.4473 105.211 54.2876 100.806C53.3816 100.036 52.1441 98.6895 52.3874 98.3381C52.5761 98.0662 53.6878 98.3046 54.8833 98.7146C56.5612 99.2793 56.4983 98.9363 60.0387 99.5763C66.8973 100.831 70.9159 102.793 71.7088 101.668C72.3632 100.739 70.8698 98.1917 68.9486 96.5937C66.1171 94.2386 63.4953 94.9205 58.4028 93.7659C52.4755 92.4189 47.9157 89.6622 48.0457 89.2355C48.2387 88.6624 57.5009 91.0803 59.0739 91.4903C65.9325 93.2807 68.2354 94.3265 68.8814 93.4229C69.6701 92.3227 67.5181 89.0557 64.9215 87.2987C62.5221 85.6757 60.8316 86.2153 57.1485 85.6589C49.732 84.5462 41.1159 80.2919 37.7474 75.268C37.5167 74.9291 36.8623 73.9126 36.6106 74.013C35.8723 74.3268 39.7567 83.6761 38.9178 84.0526C38.4563 84.2701 36.5225 81.7686 35.3857 78.878C34.7188 77.1797 32.4829 71.4948 35.5871 67.4329C35.9101 67.0146 37.7139 64.6511 40.3608 64.5047C43.1084 64.3583 43.8215 66.7511 47.9115 67.755C48.956 68.0102 51.4393 68.5916 54.0108 67.5333C56.4228 66.5461 58.6461 64.2411 58.1804 63.0908C57.761 62.045 55.4244 62.7561 52.379 61.9446C48.44 60.8946 46.3174 58.0919 44.7989 56.5567C39.9077 51.6164 30.7337 49.1567 23.4053 50.0602C10.8502 51.5996 4.21393 62.9025 2.59053 65.6718C2.33465 66.0692 -0.979267 71.7834 0.287572 72.8752Z" fill="#00AA00"/>
<path d="M47.1732 165.034C48.0541 164.503 47.1229 162.219 47.1732 159.596C47.2739 154.2 51.452 150.184 53.5997 148.118C59.4934 142.449 63.5457 144.227 78.8946 137.141C84.4066 134.593 86.4159 133.18 87.7037 132.213C90.9967 129.741 94.5707 126.005 97.9643 119.865C97.9643 119.865 101.849 113.372 104.131 110.243C104.47 109.641 104.76 108.917 104.466 108.482C103.921 107.675 101.53 108.114 100.016 108.834C94.7972 111.323 96.2863 118.928 90.4891 122.471C89.4739 123.09 87.8086 123.847 87.5527 123.508C87.3514 123.245 87.9218 122.253 88.6769 121.258C89.734 119.852 89.3942 119.793 91.0973 116.631C94.3987 110.515 97.528 107.311 96.7017 106.215C96.0179 105.307 93.1234 105.935 91.0092 107.261C87.8883 109.223 87.7331 111.908 85.0526 116.388C81.9358 121.596 77.892 125.081 77.5312 124.813C77.0446 124.453 82.2127 116.418 83.0894 115.054C86.9193 109.097 88.6224 107.24 87.9638 106.345C87.1584 105.261 83.3788 106.29 80.8997 108.21C78.6135 109.984 78.6009 111.753 76.9356 115.075C73.5797 121.768 66.868 128.624 61.0288 130.268C60.6344 130.377 59.4641 130.686 59.4893 130.958C59.5606 131.757 69.6785 130.958 69.796 131.879C69.8589 132.385 66.8596 133.443 63.7638 133.627C61.9432 133.736 55.8272 134.1 52.9118 129.9C52.6097 129.482 50.915 127.026 51.5988 124.462C52.3077 121.81 54.812 121.872 57.0311 118.313C57.5974 117.401 58.9104 115.225 58.709 112.456C58.5161 109.867 57.0017 107.047 55.7726 107.131C54.64 107.21 54.6023 109.641 52.8866 112.28C50.6633 115.69 47.3368 116.836 45.403 117.806C39.1821 120.915 34.0014 128.858 32.592 136.099C30.1799 148.486 38.9094 158.27 41.0488 160.667C41.3172 160.989 45.7386 165.9 47.1732 165.034Z" fill="#8A0094"/>
<path d="M149.359 150.025C149.124 149.025 146.658 149.189 144.158 148.352C139.044 146.587 136.506 141.383 135.202 138.71C131.615 131.364 134.56 128.072 132.546 111.327C131.821 105.316 131.095 102.96 130.571 101.455C129.228 97.5684 126.77 93.0213 121.963 87.9095C121.963 87.9095 116.975 82.2162 114.693 79.083C114.223 78.5768 113.619 78.079 113.116 78.2254C112.176 78.4932 111.857 80.8943 112.076 82.5508C112.839 88.2692 120.553 89.2104 122.143 95.7989C122.424 96.9535 122.63 98.7689 122.227 98.9112C121.913 99.0199 121.153 98.1749 120.428 97.1459C119.412 95.7111 119.253 96.0164 116.765 93.4229C111.95 88.4031 109.861 84.4458 108.56 84.8892C107.482 85.2615 107.189 88.1939 107.801 90.6118C108.707 94.18 111.22 95.1547 114.664 99.0827C118.67 103.647 120.742 108.558 120.377 108.821C119.882 109.172 113.812 101.785 112.785 100.53C108.288 95.0627 107.042 92.8665 105.985 93.2179C104.705 93.6362 104.517 97.5516 105.565 100.492C106.551 103.211 108.233 103.768 110.888 106.374C116.228 111.624 120.692 120.116 120.461 126.156C120.461 126.574 120.373 127.771 120.646 127.829C121.426 128.009 123.792 118.166 124.702 118.338C125.21 118.434 125.298 121.592 124.509 124.613C124.052 126.374 122.508 132.289 117.604 133.753C117.093 133.903 114.249 134.757 112.017 133.334C109.706 131.845 110.54 129.49 107.822 126.286C107.126 125.449 105.46 123.546 102.755 122.889C100.238 122.274 97.0665 122.839 96.7645 124.039C96.4918 125.135 98.799 125.926 100.783 128.369C103.35 131.527 103.418 135.037 103.72 137.154C104.764 144.014 110.737 151.376 117.21 154.957C128.276 161.073 140.307 155.819 143.256 154.539C143.692 154.334 149.728 151.657 149.359 150.025Z" fill="#D40005"/>
<path d="M166.34 47.7553C165.312 47.6674 164.721 50.0644 163.127 52.1685C159.863 56.4688 154.116 57.272 151.163 57.6819C143.05 58.8156 140.819 55.0005 124.228 51.7418C118.267 50.5664 115.805 50.5329 114.202 50.5622C110.079 50.6333 104.974 51.5578 98.6228 54.5404C98.6228 54.5404 91.651 57.5104 87.9596 58.7235C87.3303 59.0122 86.6717 59.4305 86.6508 59.9534C86.6172 60.9281 88.8069 61.9738 90.4597 62.275C96.1479 63.3208 99.4282 56.2973 106.203 56.8369C107.39 56.9331 109.185 57.2971 109.194 57.7238C109.194 58.0542 108.162 58.5102 106.958 58.8825C105.28 59.4012 105.515 59.648 102.272 61.2041C95.9801 64.2202 91.5755 64.969 91.6007 66.3494C91.6007 67.4873 94.3273 68.6711 96.819 68.8593C100.502 69.102 102.209 67.0229 107.021 64.969C112.613 62.5804 117.927 62.1328 118.07 62.5595C118.255 63.1368 109.336 66.6088 107.822 67.1986C101.215 69.7713 98.7403 70.2732 98.7487 71.3818C98.7487 72.7329 102.423 74.1134 105.561 74.013C108.456 73.921 109.504 72.4945 112.814 70.7836C119.471 67.3367 128.947 65.7303 134.627 67.8177C135.013 67.96 136.141 68.3992 136.305 68.1607C136.724 67.4747 128.062 62.1872 128.507 61.3757C128.754 60.9281 131.791 61.8191 134.417 63.4965C135.957 64.4754 141.129 67.7675 140.999 72.871C140.999 73.4022 140.919 76.3681 138.86 78.0372C136.725 79.7648 134.736 78.2463 130.843 79.8276C129.845 80.2459 127.487 81.2206 126.04 83.5924C124.673 85.8011 124.232 88.9678 125.285 89.6246C126.246 90.2269 127.714 88.2818 130.655 87.1523C134.459 85.6966 137.828 86.734 139.963 87.0686C146.83 88.1981 155.702 84.8097 161.109 79.7774C170.363 71.1684 169.079 58.1379 168.752 54.942C168.693 54.4609 168.01 47.8975 166.34 47.7553Z" fill="#195695"/>
</svg>
