<svg width="212" height="245" viewBox="0 0 212 245" fill="none" xmlns="http://www.w3.org/2000/svg">
<path d="M138.066 129.615L98.7023 156.498C106.857 155.643 114.738 152.965 121.803 148.648C130.555 143.294 137.783 135.624 142.751 126.42L138.066 129.615Z" fill="#2A0023"/>
<path d="M73.7313 158.09C78.4452 159.361 83.2957 160.003 88.1658 160C89.0495 160 89.9299 159.977 90.804 159.937L95.4794 156.744L139.57 126.636C142.089 121.272 143.812 115.541 144.679 109.641L73.7313 158.09Z" fill="#7F0032"/>
<path d="M149.676 90.7752L145 93.9707L64.451 148.981C68.2242 151.232 72.234 153.025 76.4015 154.324L149.644 104.305C150.147 99.8109 150.158 95.2719 149.676 90.7752Z" fill="#BF0035"/>
<path d="M142.015 80.5511L49.1136 143.973C51.9241 146.703 54.991 149.134 58.2685 151.229L62.9472 148.033L144.779 92.1643C144.239 88.2059 143.313 84.3148 142.015 80.5511Z" fill="#FF151B"/>
<path d="M141.196 65.6519L136.517 68.844L45.6273 130.917C47.6905 134.046 50.0361 136.965 52.6324 139.632L146.141 75.7859C144.809 72.2512 143.153 68.8576 141.196 65.6519Z" fill="#FF4F00"/>
<path d="M128.734 58.7071L35.0647 122.666C36.4224 126.187 38.1021 129.564 40.0808 132.75L44.7434 129.555L135.659 67.4787C133.624 64.3332 131.305 61.3961 128.734 58.7071Z" fill="#FF9600"/>
<path d="M123.204 47.027L118.526 50.2191L36.3116 106.365C36.884 110.31 37.8401 114.184 39.1651 117.928L132.263 54.3462C129.486 51.5979 126.452 49.1459 123.204 47.027Z" fill="#FFED00"/>
<path d="M105.222 43.8484L31.3149 94.328C30.8631 98.7965 30.8976 103.304 31.4178 107.764L36.0675 104.572L117.044 49.281C113.315 47.0104 109.348 45.1878 105.222 43.8484Z" fill="#DAFF15"/>
<path d="M92.8443 37.9717C92.282 37.9717 91.7164 37.9717 91.1573 37.9951L86.4851 41.1872L41.0256 72.2403C38.6324 77.5542 37.0154 83.2093 36.228 89.0189L107.918 40.0553C103.005 38.6679 97.9357 37.9672 92.8443 37.9717Z" fill="#BAFF00"/>
<path d="M59.2036 49.3345C50.1489 54.8795 42.7303 62.8977 37.7543 72.5174L42.4394 69.3186L83.352 41.3809C74.8295 42.112 66.5753 44.8306 59.2036 49.3345Z" fill="#7AC943"/>
<path d="M133.799 52.4528C133.799 52.4528 131.687 72.1832 129.576 74.3669C129.576 74.3669 127.468 74.3669 126.411 71.0813L119.02 80.9415C119.02 80.9415 116.912 124.776 75.7845 156.554C75.7845 156.554 129.567 142.306 136.948 60.1226C136.948 60.1226 170.688 64.5067 177.022 20.6718C177.035 20.6718 165.434 56.8236 133.799 52.4528Z" fill="black"/>
<path d="M138.015 85.3257L135.907 94.0907C135.907 94.0907 171.762 96.2845 142.234 126.967C142.234 126.967 190.743 89.7099 138.015 85.3257Z" fill="black"/>
<path d="M128.526 48.0689C133.768 48.0689 138.018 43.6529 138.018 38.2054C138.018 32.7579 133.768 28.3419 128.526 28.3419C123.283 28.3419 119.033 32.7579 119.033 38.2054C119.033 43.6529 123.283 48.0689 128.526 48.0689Z" fill="black"/>
<path d="M187.738 3.23219L185.55 1.87654L184.204 1.06181L183.722 0.76464L183.214 0.45077V0.477483L183.053 0.757961L182.861 1.09186L181.633 0.727911L179.152 0L178.966 0.694521L175.11 0.647775L174.949 14.8354L173.108 18.0909L173.092 18.1176L174.082 18.7287L174.917 19.2462L177.549 20.8757L178.124 21.233L180.907 22.9526V22.9258L181.395 22.0711L181.431 22.0143L181.672 21.5902L181.852 21.2797L183.696 18.0575L184.017 17.5099L191 5.31575V5.28904L187.738 3.23219ZM179.602 2.5143C179.848 2.57662 180.108 2.53963 180.328 2.41079L180.402 2.36404L180.47 2.31061L180.531 2.25719C180.556 2.23329 180.58 2.20763 180.602 2.18039C180.664 2.10381 180.716 2.01973 180.759 1.92996C180.782 1.87108 180.801 1.81088 180.817 1.74966L181.46 1.93664L182.141 2.13699L182.244 2.1637V2.18707L182.186 2.28056L177.407 10.6282L179.602 2.5143ZM176.17 2.95505C176.304 2.95203 176.435 2.92157 176.557 2.86543C176.679 2.80929 176.789 2.72858 176.881 2.62798C176.973 2.52737 177.044 2.40887 177.092 2.27931C177.139 2.14976 177.161 2.01173 177.157 1.8732H178.648L176.077 11.3594L176.17 2.95505ZM185.075 13.5098L184.83 13.9372L184.059 15.2728L183.67 15.9406L182.967 17.1627L182.722 17.5767L182.356 18.2211L181.88 19.0926L181.376 19.9708L181.312 20.0943L181.154 20.3648L181.061 20.3214C180.869 20.2494 180.661 20.239 180.463 20.2913C180.362 20.3174 180.265 20.3614 180.177 20.4216C180.155 20.4383 180.132 20.4516 180.11 20.4717L180.046 20.5284L180.017 20.5585C179.972 20.5946 179.934 20.6387 179.904 20.6887L179.882 20.7187C179.865 20.7392 179.851 20.7616 179.84 20.7855C179.825 20.8073 179.812 20.8308 179.801 20.8556L178.516 20.0609L178.13 19.8239L176.1 18.5651L176.013 18.5116L175.502 18.1944C175.514 18.1608 175.522 18.1262 175.528 18.0909C175.538 18.0693 175.546 18.0469 175.553 18.0241V17.9907C175.592 17.8842 175.611 17.7708 175.608 17.6568C175.611 17.6291 175.611 17.6011 175.608 17.5734C175.608 17.5433 175.608 17.5066 175.608 17.4699C175.608 17.4331 175.608 17.3997 175.585 17.363C175.587 17.3463 175.587 17.3296 175.585 17.3129C175.586 17.3007 175.586 17.2884 175.585 17.2762C175.504 17.0485 175.351 16.8557 175.152 16.7286L176.045 15.1726L176.286 14.7552L179.104 9.84015L183.005 3.03185C183.045 3.05587 183.087 3.07599 183.13 3.09195L183.217 3.122C183.386 3.16875 183.563 3.16875 183.731 3.122L183.831 3.09195C183.883 3.0681 183.934 3.04361 183.985 3.01849L184.066 2.96507C184.114 2.93395 184.158 2.89696 184.197 2.85488C184.225 2.82652 184.251 2.79641 184.274 2.76472C184.314 2.71311 184.349 2.65841 184.38 2.60111V2.5744L185.068 2.99846L185.557 3.30231L187.395 4.44092L188.641 5.2089V5.23895C188.617 5.2811 188.596 5.32587 188.58 5.37252C188.561 5.41567 188.545 5.46032 188.532 5.50608C188.503 5.61465 188.491 5.72742 188.497 5.83998C188.497 5.87003 188.497 5.90008 188.497 5.93347C188.501 5.9638 188.506 5.9939 188.513 6.02363C188.513 6.05702 188.532 6.09375 188.545 6.12714C188.555 6.16015 188.567 6.19249 188.58 6.22397C188.591 6.24801 188.603 6.27142 188.616 6.29409C188.698 6.45354 188.819 6.58812 188.966 6.68476L185.075 13.5098Z" fill="#3D8033"/>
<path d="M186.935 9.7902C186.902 9.79881 186.87 9.80997 186.839 9.82359C186.806 9.83714 186.773 9.85276 186.742 9.87033L186.659 9.9271C186.63 9.94684 186.604 9.97041 186.582 9.99722C186.556 10.0195 186.533 10.0454 186.514 10.074C186.493 10.1003 186.473 10.1282 186.456 10.1575C186.456 10.1875 186.424 10.2209 186.411 10.251C186.396 10.2819 186.384 10.3143 186.376 10.3478C186.376 10.3812 186.376 10.4146 186.353 10.448C186.35 10.4824 186.35 10.5171 186.353 10.5515C186.35 10.587 186.35 10.6228 186.353 10.6583C186.356 10.6955 186.361 10.7324 186.37 10.7685C186.378 10.8051 186.39 10.8409 186.405 10.8754C186.416 10.9112 186.432 10.9451 186.453 10.9756L186.485 11.0323L186.533 11.0958L186.572 11.1392L186.646 11.206C186.671 11.229 186.699 11.2482 186.729 11.2627C186.761 11.2858 186.796 11.3038 186.832 11.3161L186.909 11.3462C186.941 11.3571 186.973 11.365 187.006 11.3696H187.109C187.143 11.373 187.177 11.373 187.211 11.3696C187.246 11.3689 187.281 11.3633 187.314 11.3529C187.418 11.332 187.517 11.2894 187.605 11.2275C187.693 11.1656 187.767 11.0858 187.824 10.993C187.882 10.9001 187.92 10.7961 187.937 10.6874C187.954 10.5787 187.95 10.4675 187.924 10.3605C187.899 10.2536 187.852 10.1532 187.788 10.0654C187.724 9.9777 187.644 9.90444 187.551 9.85014C187.459 9.79583 187.357 9.76163 187.252 9.7496C187.146 9.73757 187.04 9.74798 186.938 9.78018L186.935 9.7902Z" fill="#3D8033"/>
<path d="M188.629 6.28421C188.616 6.26154 188.604 6.23813 188.593 6.21409C188.58 6.1826 188.568 6.15026 188.558 6.11725C188.558 6.08386 188.535 6.04714 188.526 6.01374C188.519 5.98401 188.514 5.95392 188.51 5.92359C188.51 5.8902 188.51 5.86015 188.51 5.8301C188.504 5.71754 188.516 5.60476 188.545 5.49619C188.558 5.45044 188.574 5.40578 188.593 5.36263C188.609 5.31599 188.629 5.27122 188.654 5.22907V5.19902L187.407 4.43104L185.569 3.29243L185.081 2.98857L184.393 2.56451V2.59123C184.362 2.64853 184.327 2.70323 184.287 2.75484C184.263 2.78652 184.238 2.81663 184.21 2.84499C184.171 2.88707 184.126 2.92406 184.078 2.95518L183.998 3.00861C183.947 3.03372 183.896 3.05821 183.844 3.08207L183.744 3.11212C183.576 3.15887 183.399 3.15887 183.23 3.11212L183.143 3.08207C183.1 3.0661 183.058 3.04598 183.018 3.02196L179.117 9.83027L176.299 14.7453L176.058 15.1627L175.165 16.7187C175.364 16.8458 175.517 17.0386 175.598 17.2663C175.599 17.2785 175.599 17.2908 175.598 17.303C175.6 17.3197 175.6 17.3365 175.598 17.3531C175.598 17.3899 175.598 17.4266 175.621 17.46C175.643 17.4934 175.621 17.5334 175.621 17.5635C175.624 17.5912 175.624 17.6192 175.621 17.647C175.624 17.7609 175.605 17.8743 175.566 17.9809V18.0143C175.559 18.0371 175.55 18.0594 175.541 18.081C175.529 18.1123 175.515 18.1425 175.499 18.1712L176.01 18.4884L176.096 18.5418L178.127 19.8006L178.513 20.0377L179.798 20.8324C179.808 20.8076 179.821 20.784 179.837 20.7623C179.848 20.7384 179.862 20.716 179.879 20.6955L179.901 20.6655C179.931 20.6154 179.969 20.5714 180.014 20.5352L180.042 20.5052L180.107 20.4484C180.129 20.4284 180.152 20.415 180.174 20.3983C180.262 20.3382 180.358 20.2941 180.46 20.2681C180.658 20.2157 180.866 20.2262 181.058 20.2982L181.151 20.3416L181.312 20.0945L181.382 19.9676L181.887 19.0894L182.359 18.2714L182.726 17.6269L182.97 17.2129L183.674 15.9908L184.062 15.323L184.834 13.9874L185.078 13.56L188.995 6.73164C188.834 6.62181 188.707 6.46658 188.629 6.28421ZM179.666 16.9691C179.517 17.0074 179.359 16.9986 179.214 16.9439C179.069 16.8892 178.942 16.7909 178.851 16.6616C178.759 16.5323 178.707 16.3777 178.7 16.2174C178.693 16.0571 178.732 15.8982 178.812 15.761C178.892 15.6237 179.01 15.5141 179.149 15.4462C179.289 15.3782 179.446 15.3549 179.598 15.3791C179.751 15.4034 179.893 15.4741 180.007 15.5824C180.121 15.6907 180.202 15.8316 180.238 15.9875C180.287 16.196 180.254 16.416 180.147 16.5993C180.04 16.7827 179.867 16.9144 179.666 16.9658V16.9691ZM184.525 13.1626C184.432 13.3234 184.325 13.4744 184.204 13.6134C184.165 13.6601 184.123 13.7069 184.082 13.7503C183.959 13.8732 183.827 13.9849 183.686 14.0842C183.476 14.2365 183.247 14.3578 183.005 14.4448C182.922 14.4749 182.841 14.4982 182.755 14.5216C182.278 14.6435 181.779 14.6348 181.306 14.4964C180.834 14.3579 180.404 14.0945 180.059 13.7318C179.714 13.3691 179.465 12.9195 179.337 12.4271C179.209 11.9346 179.206 11.4161 179.329 10.9221C179.398 10.6466 179.507 10.3833 179.65 10.1408C179.842 9.8093 180.095 9.52055 180.394 9.29129C180.694 9.06202 181.034 8.8968 181.395 8.80518C181.95 8.66354 182.533 8.69726 183.069 8.90202C183.472 9.05929 183.834 9.30931 184.13 9.63327C184.356 9.87595 184.539 10.1586 184.67 10.468C184.736 10.6247 184.789 10.7866 184.83 10.9522C185.011 11.7021 184.902 12.4958 184.525 13.1626ZM184.898 7.86691C184.864 7.87732 184.83 7.88294 184.795 7.88361C184.761 7.88703 184.726 7.88703 184.692 7.88361H184.589C184.557 7.879 184.524 7.87117 184.493 7.86023L184.416 7.83352C184.379 7.81796 184.343 7.79896 184.31 7.77676C184.281 7.76134 184.254 7.74228 184.229 7.72C184.203 7.69967 184.179 7.67735 184.156 7.65321C184.142 7.63952 184.129 7.62503 184.117 7.60981L184.069 7.54636C184.057 7.52933 184.046 7.51148 184.037 7.49294C184.016 7.46087 184 7.42605 183.988 7.38943C183.974 7.35491 183.962 7.31917 183.953 7.28258C183.95 7.24592 183.95 7.20905 183.953 7.17239C183.942 7.10271 183.942 7.03171 183.953 6.96203C183.953 6.92864 183.953 6.89525 183.976 6.86186C183.985 6.82854 183.996 6.79613 184.011 6.76503C184.011 6.73498 184.04 6.70159 184.056 6.67154C184.073 6.64221 184.092 6.6143 184.114 6.58806C184.133 6.5594 184.156 6.53356 184.181 6.51126C184.205 6.48534 184.231 6.46186 184.258 6.44114L184.342 6.38438L184.435 6.33763L184.535 6.30424C184.731 6.26494 184.934 6.30537 185.103 6.4172C185.271 6.52904 185.392 6.70376 185.44 6.90536C185.489 7.10697 185.46 7.32011 185.362 7.50086C185.263 7.68161 185.102 7.81622 184.911 7.87693L184.898 7.86691Z" fill="#87C443"/>
<path d="M182.173 2.27383L182.231 2.18033V2.15696L182.128 2.13025L181.447 1.92991L180.804 1.74292C180.788 1.80414 180.769 1.86435 180.746 1.92323C180.704 2.01299 180.651 2.09708 180.589 2.17366C180.567 2.20089 180.543 2.22655 180.518 2.25045L180.457 2.30388L180.389 2.3573L180.316 2.40405C180.095 2.53289 179.835 2.56988 179.589 2.50756L177.398 10.6047L182.173 2.27383Z" fill="#87C443"/>
<path d="M183.175 11.042L183.102 11.0019C183.079 10.9871 183.056 10.9747 183.031 10.9652C182.992 10.9473 182.952 10.9317 182.912 10.9185C182.872 10.9064 182.831 10.8974 182.79 10.8917C182.764 10.8899 182.738 10.8899 182.713 10.8917H182.636C182.505 10.8947 182.376 10.9242 182.256 10.9786C182.215 10.9941 182.176 11.0131 182.138 11.0353L182.028 11.0954C181.958 11.1422 181.887 11.1889 181.823 11.239C181.469 11.5095 181.389 11.4995 181.318 11.456C181.301 11.445 181.286 11.4305 181.274 11.4132C181.263 11.396 181.255 11.3765 181.251 11.3559C181.242 11.2743 181.263 11.1923 181.308 11.1255C181.395 10.9752 181.519 10.8526 181.668 10.7715L181.9 10.6413L181.418 9.99689L181.247 10.0904C181.094 10.1739 180.958 10.2873 180.846 10.4243L180.444 10.1705L180.055 10.8383L180.499 11.1188C180.442 11.3288 180.453 11.5523 180.529 11.7554C180.606 11.9585 180.744 12.1301 180.923 12.2441C181.418 12.5579 181.887 12.2908 182.263 11.987C182.584 11.7499 182.681 11.7833 182.754 11.8334C182.78 11.8485 182.802 11.8696 182.819 11.8951C182.836 11.9206 182.847 11.9497 182.851 11.9803C182.859 12.0758 182.835 12.1713 182.783 12.2507C182.681 12.4209 182.534 12.5566 182.359 12.6414L182.096 12.7716L182.597 13.4161L182.754 13.3426C182.848 13.301 182.935 13.2472 183.015 13.1823C183.108 13.1042 183.194 13.017 183.272 12.9219L183.69 13.1857L184.075 12.5179L183.622 12.2307C183.684 12.0091 183.674 11.7725 183.593 11.5576C183.512 11.3427 183.365 11.1615 183.175 11.042Z" fill="#87C443"/>
<path d="M184.657 10.4747C184.526 10.1653 184.343 9.88263 184.117 9.63994C183.821 9.31599 183.459 9.06597 183.056 8.90869C182.52 8.70394 181.937 8.67022 181.382 8.81186C181.021 8.90347 180.681 9.0687 180.381 9.29797C180.081 9.52723 179.829 9.81598 179.637 10.1475C179.494 10.39 179.385 10.6533 179.316 10.9288C179.193 11.4227 179.196 11.9413 179.324 12.4337C179.452 12.9262 179.701 13.3757 180.046 13.7385C180.391 14.1012 180.821 14.3646 181.293 14.503C181.766 14.6415 182.265 14.6502 182.742 14.5283C182.828 14.5049 182.909 14.4816 182.992 14.4515C183.234 14.3645 183.463 14.2432 183.673 14.0909C183.814 13.9915 183.946 13.8798 184.069 13.757C184.11 13.7136 184.152 13.6668 184.191 13.6201C184.312 13.4811 184.419 13.3301 184.512 13.1693C184.892 12.5066 185.008 11.7155 184.833 10.9655C184.788 10.7972 184.729 10.633 184.657 10.4747ZM183.693 13.1693L183.275 12.9055C183.197 13.0006 183.111 13.0878 183.018 13.166C182.938 13.2308 182.851 13.2847 182.758 13.3262L182.597 13.4164L182.096 12.7486L182.359 12.6184C182.534 12.5336 182.681 12.3979 182.783 12.2277C182.835 12.1483 182.859 12.0528 182.851 11.9572C182.847 11.9267 182.836 11.8975 182.819 11.8721C182.802 11.8466 182.78 11.8254 182.754 11.8103C182.68 11.7602 182.571 11.7268 182.263 11.9639C181.877 12.2678 181.418 12.5349 180.923 12.221C180.744 12.107 180.606 11.9354 180.529 11.7323C180.452 11.5292 180.442 11.3057 180.499 11.0958L180.055 10.8153L180.444 10.1475L180.846 10.4012C180.958 10.2642 181.094 10.1509 181.247 10.0673L181.418 9.97385L181.9 10.6183L181.668 10.7485C181.519 10.8296 181.394 10.9521 181.308 11.1024C181.262 11.1692 181.242 11.2513 181.251 11.3328C181.255 11.3534 181.263 11.373 181.274 11.3902C181.286 11.4074 181.301 11.422 181.318 11.433C181.389 11.4764 181.469 11.4864 181.823 11.216C181.887 11.1659 181.957 11.1191 182.028 11.0724L182.137 11.0123C182.175 10.99 182.215 10.971 182.256 10.9555C182.376 10.9012 182.505 10.8717 182.635 10.8687H182.713C182.738 10.8669 182.764 10.8669 182.79 10.8687C182.831 10.8744 182.872 10.8833 182.912 10.8954C182.952 10.9086 182.992 10.9242 183.031 10.9422C183.056 10.9517 183.079 10.964 183.101 10.9789L183.175 11.019C183.363 11.1384 183.507 11.3182 183.588 11.5309C183.668 11.7437 183.679 11.9778 183.619 12.1976L184.072 12.4848L183.693 13.1693Z" fill="#3D8033"/>
<path d="M178.645 1.88971H177.153C177.158 2.16609 177.057 2.43306 176.873 2.63254C176.689 2.83201 176.436 2.94786 176.17 2.95486L176.077 11.3759L178.645 1.88971Z" fill="#87C443"/>
<path d="M179.294 15.3932C179.144 15.4317 179.008 15.5155 178.904 15.6342C178.8 15.7529 178.732 15.9009 178.709 16.0597C178.686 16.2185 178.708 16.3808 178.774 16.5261C178.84 16.6715 178.946 16.7932 179.078 16.8761C179.21 16.9589 179.363 16.999 179.518 16.9914C179.672 16.9838 179.821 16.9287 179.945 16.8333C180.069 16.7378 180.164 16.6061 180.216 16.455C180.268 16.3038 180.276 16.14 180.238 15.9842C180.188 15.7758 180.061 15.5966 179.884 15.4858C179.706 15.375 179.494 15.3417 179.294 15.3932Z" fill="#3D8033"/>
<path d="M98.3454 92.5717L95.4534 73.5726C95.4036 73.2486 95.2323 72.9584 94.9768 72.7656C94.7214 72.5728 94.4028 72.4932 94.091 72.5442L84.6469 74.0901C84.529 73.117 84.1374 72.2016 83.5213 71.4586C82.9051 70.7156 82.0917 70.1779 81.1829 69.913C82.7896 68.9313 101.671 57.7489 121.141 58.8574V65.6023C114.814 76.561 102.16 76.561 102.16 76.561L97.9406 83.1356L108.487 85.326C129.576 72.1835 129.576 54.6436 129.576 54.6436C127.468 59.0277 123.249 61.2181 123.249 61.2181V52.4531C123.249 52.4531 89.9361 50.2928 79.1649 69.6125C78.699 69.6101 78.2337 69.6469 77.7735 69.7227C74.422 70.2703 71.9895 72.5942 72.5165 76.0668L63.3809 77.5728C63.0694 77.6237 62.7901 77.8011 62.6045 78.066C62.4189 78.3309 62.3422 78.6615 62.3912 78.9852L65.2832 97.9843C65.333 98.3085 65.5043 98.5989 65.7596 98.7923C66.0149 98.9856 66.3334 99.0661 66.6456 99.0161L97.3718 93.9841C97.6807 93.9301 97.9566 93.7513 98.139 93.4866C98.3214 93.222 98.3956 92.8931 98.3454 92.5717ZM74.0364 75.8264C73.6411 73.2153 75.5017 71.7094 78.0145 71.2987C80.5274 70.888 82.7446 71.7261 83.1559 74.3372L74.0364 75.8264Z" fill="black"/>
<path d="M37.5354 229.223L34.7074 238.981H33.2794L31.0114 231.127L28.6594 238.981L27.2454 238.995L24.5154 229.223H25.8734L28.0014 237.497L30.3534 229.223H31.7814L34.0214 237.469L36.1634 229.223H37.5354ZM45.9296 234.851C45.9296 235.094 45.9156 235.35 45.8876 235.621H39.7556C39.8022 236.377 40.0589 236.97 40.5256 237.399C41.0016 237.819 41.5756 238.029 42.2476 238.029C42.7982 238.029 43.2556 237.903 43.6196 237.651C43.9929 237.39 44.2542 237.044 44.4036 236.615H45.7756C45.5702 237.352 45.1596 237.954 44.5436 238.421C43.9276 238.878 43.1622 239.107 42.2476 239.107C41.5196 239.107 40.8662 238.944 40.2876 238.617C39.7182 238.29 39.2702 237.828 38.9436 237.231C38.6169 236.624 38.4536 235.924 38.4536 235.131C38.4536 234.338 38.6122 233.642 38.9296 233.045C39.2469 232.448 39.6902 231.99 40.2596 231.673C40.8382 231.346 41.5009 231.183 42.2476 231.183C42.9756 231.183 43.6196 231.342 44.1796 231.659C44.7396 231.976 45.1689 232.415 45.4676 232.975C45.7756 233.526 45.9296 234.151 45.9296 234.851ZM44.6136 234.585C44.6136 234.1 44.5062 233.684 44.2916 233.339C44.0769 232.984 43.7829 232.718 43.4096 232.541C43.0456 232.354 42.6396 232.261 42.1916 232.261C41.5476 232.261 40.9969 232.466 40.5396 232.877C40.0916 233.288 39.8349 233.857 39.7696 234.585H44.6136ZM52.6176 232.737C52.879 232.28 53.2616 231.906 53.7656 231.617C54.2696 231.328 54.8436 231.183 55.4876 231.183C56.1783 231.183 56.799 231.346 57.3496 231.673C57.9003 232 58.3343 232.462 58.6516 233.059C58.969 233.647 59.1276 234.333 59.1276 235.117C59.1276 235.892 58.969 236.582 58.6516 237.189C58.3343 237.796 57.8956 238.267 57.3356 238.603C56.785 238.939 56.169 239.107 55.4876 239.107C54.825 239.107 54.2416 238.962 53.7376 238.673C53.243 238.384 52.8696 238.015 52.6176 237.567V238.981H51.3436V228.621H52.6176V232.737ZM57.8256 235.117C57.8256 234.538 57.709 234.034 57.4756 233.605C57.2423 233.176 56.925 232.849 56.5236 232.625C56.1316 232.401 55.6976 232.289 55.2216 232.289C54.755 232.289 54.321 232.406 53.9196 232.639C53.5276 232.863 53.2103 233.194 52.9676 233.633C52.7343 234.062 52.6176 234.562 52.6176 235.131C52.6176 235.71 52.7343 236.218 52.9676 236.657C53.2103 237.086 53.5276 237.418 53.9196 237.651C54.321 237.875 54.755 237.987 55.2216 237.987C55.6976 237.987 56.1316 237.875 56.5236 237.651C56.925 237.418 57.2423 237.086 57.4756 236.657C57.709 236.218 57.8256 235.705 57.8256 235.117ZM62.0786 232.555C62.3026 232.116 62.6199 231.776 63.0306 231.533C63.4506 231.29 63.9592 231.169 64.5566 231.169V232.485H64.2206C62.7926 232.485 62.0786 233.26 62.0786 234.809V238.981H60.8046V231.309H62.0786V232.555ZM66.6852 230.063C66.4426 230.063 66.2372 229.979 66.0692 229.811C65.9012 229.643 65.8172 229.438 65.8172 229.195C65.8172 228.952 65.9012 228.747 66.0692 228.579C66.2372 228.411 66.4426 228.327 66.6852 228.327C66.9186 228.327 67.1146 228.411 67.2732 228.579C67.4412 228.747 67.5252 228.952 67.5252 229.195C67.5252 229.438 67.4412 229.643 67.2732 229.811C67.1146 229.979 66.9186 230.063 66.6852 230.063ZM67.3012 231.309V238.981H66.0272V231.309H67.3012ZM73.2105 231.169C74.1439 231.169 74.8999 231.454 75.4785 232.023C76.0572 232.583 76.3465 233.395 76.3465 234.459V238.981H75.0865V234.641C75.0865 233.876 74.8952 233.292 74.5125 232.891C74.1299 232.48 73.6072 232.275 72.9445 232.275C72.2725 232.275 71.7359 232.485 71.3345 232.905C70.9425 233.325 70.7465 233.936 70.7465 234.739V238.981H69.4725V231.309H70.7465V232.401C70.9985 232.009 71.3392 231.706 71.7685 231.491C72.2072 231.276 72.6879 231.169 73.2105 231.169ZM81.5916 231.183C82.2543 231.183 82.8329 231.328 83.3276 231.617C83.8316 231.906 84.2049 232.27 84.4476 232.709V231.309H85.7356V239.149C85.7356 239.849 85.5863 240.47 85.2876 241.011C84.9889 241.562 84.5596 241.991 83.9996 242.299C83.4489 242.607 82.8049 242.761 82.0676 242.761C81.0596 242.761 80.2196 242.523 79.5476 242.047C78.8756 241.571 78.4789 240.922 78.3576 240.101H79.6176C79.7576 240.568 80.0469 240.941 80.4856 241.221C80.9243 241.51 81.4516 241.655 82.0676 241.655C82.7676 241.655 83.3369 241.436 83.7756 240.997C84.2236 240.558 84.4476 239.942 84.4476 239.149V237.539C84.1956 237.987 83.8223 238.36 83.3276 238.659C82.8329 238.958 82.2543 239.107 81.5916 239.107C80.9103 239.107 80.2896 238.939 79.7296 238.603C79.1789 238.267 78.7449 237.796 78.4276 237.189C78.1103 236.582 77.9516 235.892 77.9516 235.117C77.9516 234.333 78.1103 233.647 78.4276 233.059C78.7449 232.462 79.1789 232 79.7296 231.673C80.2896 231.346 80.9103 231.183 81.5916 231.183ZM84.4476 235.131C84.4476 234.552 84.3309 234.048 84.0976 233.619C83.8643 233.19 83.5469 232.863 83.1456 232.639C82.7536 232.406 82.3196 232.289 81.8436 232.289C81.3676 232.289 80.9336 232.401 80.5416 232.625C80.1496 232.849 79.8369 233.176 79.6036 233.605C79.3703 234.034 79.2536 234.538 79.2536 235.117C79.2536 235.705 79.3703 236.218 79.6036 236.657C79.8369 237.086 80.1496 237.418 80.5416 237.651C80.9336 237.875 81.3676 237.987 81.8436 237.987C82.3196 237.987 82.7536 237.875 83.1456 237.651C83.5469 237.418 83.8643 237.086 84.0976 236.657C84.3309 236.218 84.4476 235.71 84.4476 235.131ZM91.145 235.117C91.145 234.333 91.3036 233.647 91.621 233.059C91.9383 232.462 92.3723 232 92.923 231.673C93.483 231.346 94.1083 231.183 94.799 231.183C95.3963 231.183 95.9516 231.323 96.465 231.603C96.9783 231.874 97.3703 232.233 97.641 232.681V228.621H98.929V238.981H97.641V237.539C97.389 237.996 97.0156 238.374 96.521 238.673C96.0263 238.962 95.4476 239.107 94.785 239.107C94.1036 239.107 93.483 238.939 92.923 238.603C92.3723 238.267 91.9383 237.796 91.621 237.189C91.3036 236.582 91.145 235.892 91.145 235.117ZM97.641 235.131C97.641 234.552 97.5243 234.048 97.291 233.619C97.0576 233.19 96.7403 232.863 96.339 232.639C95.947 232.406 95.513 232.289 95.037 232.289C94.561 232.289 94.127 232.401 93.735 232.625C93.343 232.849 93.0303 233.176 92.797 233.605C92.5636 234.034 92.447 234.538 92.447 235.117C92.447 235.705 92.5636 236.218 92.797 236.657C93.0303 237.086 93.343 237.418 93.735 237.651C94.127 237.875 94.561 237.987 95.037 237.987C95.513 237.987 95.947 237.875 96.339 237.651C96.7403 237.418 97.0576 237.086 97.291 236.657C97.5243 236.218 97.641 235.71 97.641 235.131ZM102.356 232.555C102.58 232.116 102.897 231.776 103.308 231.533C103.728 231.29 104.237 231.169 104.834 231.169V232.485H104.498C103.07 232.485 102.356 233.26 102.356 234.809V238.981H101.082V231.309H102.356V232.555ZM113.305 234.851C113.305 235.094 113.291 235.35 113.263 235.621H107.131C107.177 236.377 107.434 236.97 107.901 237.399C108.377 237.819 108.951 238.029 109.623 238.029C110.173 238.029 110.631 237.903 110.995 237.651C111.368 237.39 111.629 237.044 111.779 236.615H113.151C112.945 237.352 112.535 237.954 111.919 238.421C111.303 238.878 110.537 239.107 109.623 239.107C108.895 239.107 108.241 238.944 107.663 238.617C107.093 238.29 106.645 237.828 106.319 237.231C105.992 236.624 105.829 235.924 105.829 235.131C105.829 234.338 105.987 233.642 106.305 233.045C106.622 232.448 107.065 231.99 107.635 231.673C108.213 231.346 108.876 231.183 109.623 231.183C110.351 231.183 110.995 231.342 111.555 231.659C112.115 231.976 112.544 232.415 112.843 232.975C113.151 233.526 113.305 234.151 113.305 234.851ZM111.989 234.585C111.989 234.1 111.881 233.684 111.667 233.339C111.452 232.984 111.158 232.718 110.785 232.541C110.421 232.354 110.015 232.261 109.567 232.261C108.923 232.261 108.372 232.466 107.915 232.877C107.467 233.288 107.21 233.857 107.145 234.585H111.989ZM114.51 235.117C114.51 234.333 114.669 233.647 114.986 233.059C115.304 232.462 115.738 232 116.288 231.673C116.848 231.346 117.469 231.183 118.15 231.183C118.822 231.183 119.406 231.328 119.9 231.617C120.395 231.906 120.764 232.27 121.006 232.709V231.309H122.294V238.981H121.006V237.553C120.754 238.001 120.376 238.374 119.872 238.673C119.378 238.962 118.799 239.107 118.136 239.107C117.455 239.107 116.839 238.939 116.288 238.603C115.738 238.267 115.304 237.796 114.986 237.189C114.669 236.582 114.51 235.892 114.51 235.117ZM121.006 235.131C121.006 234.552 120.89 234.048 120.656 233.619C120.423 233.19 120.106 232.863 119.704 232.639C119.312 232.406 118.878 232.289 118.402 232.289C117.926 232.289 117.492 232.401 117.1 232.625C116.708 232.849 116.396 233.176 116.162 233.605C115.929 234.034 115.812 234.538 115.812 235.117C115.812 235.705 115.929 236.218 116.162 236.657C116.396 237.086 116.708 237.418 117.1 237.651C117.492 237.875 117.926 237.987 118.402 237.987C118.878 237.987 119.312 237.875 119.704 237.651C120.106 237.418 120.423 237.086 120.656 236.657C120.89 236.218 121.006 235.71 121.006 235.131ZM133.673 231.169C134.27 231.169 134.802 231.295 135.269 231.547C135.736 231.79 136.104 232.158 136.375 232.653C136.646 233.148 136.781 233.75 136.781 234.459V238.981H135.521V234.641C135.521 233.876 135.33 233.292 134.947 232.891C134.574 232.48 134.065 232.275 133.421 232.275C132.758 232.275 132.231 232.49 131.839 232.919C131.447 233.339 131.251 233.95 131.251 234.753V238.981H129.991V234.641C129.991 233.876 129.8 233.292 129.417 232.891C129.044 232.48 128.535 232.275 127.891 232.275C127.228 232.275 126.701 232.49 126.309 232.919C125.917 233.339 125.721 233.95 125.721 234.753V238.981H124.447V231.309H125.721V232.415C125.973 232.014 126.309 231.706 126.729 231.491C127.158 231.276 127.63 231.169 128.143 231.169C128.787 231.169 129.356 231.314 129.851 231.603C130.346 231.892 130.714 232.317 130.957 232.877C131.172 232.336 131.526 231.916 132.021 231.617C132.516 231.318 133.066 231.169 133.673 231.169ZM141.587 239.107C140.999 239.107 140.472 239.009 140.005 238.813C139.538 238.608 139.17 238.328 138.899 237.973C138.628 237.609 138.479 237.194 138.451 236.727H139.767C139.804 237.11 139.982 237.422 140.299 237.665C140.626 237.908 141.05 238.029 141.573 238.029C142.058 238.029 142.441 237.922 142.721 237.707C143.001 237.492 143.141 237.222 143.141 236.895C143.141 236.559 142.992 236.312 142.693 236.153C142.394 235.985 141.932 235.822 141.307 235.663C140.738 235.514 140.271 235.364 139.907 235.215C139.552 235.056 139.244 234.828 138.983 234.529C138.731 234.221 138.605 233.82 138.605 233.325C138.605 232.933 138.722 232.574 138.955 232.247C139.188 231.92 139.52 231.664 139.949 231.477C140.378 231.281 140.868 231.183 141.419 231.183C142.268 231.183 142.954 231.398 143.477 231.827C144 232.256 144.28 232.844 144.317 233.591H143.043C143.015 233.19 142.852 232.868 142.553 232.625C142.264 232.382 141.872 232.261 141.377 232.261C140.92 232.261 140.556 232.359 140.285 232.555C140.014 232.751 139.879 233.008 139.879 233.325C139.879 233.577 139.958 233.787 140.117 233.955C140.285 234.114 140.49 234.244 140.733 234.347C140.985 234.44 141.33 234.548 141.769 234.669C142.32 234.818 142.768 234.968 143.113 235.117C143.458 235.257 143.752 235.472 143.995 235.761C144.247 236.05 144.378 236.428 144.387 236.895C144.387 237.315 144.27 237.693 144.037 238.029C143.804 238.365 143.472 238.631 143.043 238.827C142.623 239.014 142.138 239.107 141.587 239.107ZM151.472 232.359V236.881C151.472 237.254 151.551 237.52 151.71 237.679C151.869 237.828 152.144 237.903 152.536 237.903H153.474V238.981H152.326C151.617 238.981 151.085 238.818 150.73 238.491C150.375 238.164 150.198 237.628 150.198 236.881V232.359H149.204V231.309H150.198V229.377H151.472V231.309H153.474V232.359H151.472ZM158.363 239.107C157.645 239.107 156.991 238.944 156.403 238.617C155.825 238.29 155.367 237.828 155.031 237.231C154.705 236.624 154.541 235.924 154.541 235.131C154.541 234.347 154.709 233.656 155.045 233.059C155.391 232.452 155.857 231.99 156.445 231.673C157.033 231.346 157.691 231.183 158.419 231.183C159.147 231.183 159.805 231.346 160.393 231.673C160.981 231.99 161.443 232.448 161.779 233.045C162.125 233.642 162.297 234.338 162.297 235.131C162.297 235.924 162.12 236.624 161.765 237.231C161.42 237.828 160.949 238.29 160.351 238.617C159.754 238.944 159.091 239.107 158.363 239.107ZM158.363 237.987C158.821 237.987 159.25 237.88 159.651 237.665C160.053 237.45 160.375 237.128 160.617 236.699C160.869 236.27 160.995 235.747 160.995 235.131C160.995 234.515 160.874 233.992 160.631 233.563C160.389 233.134 160.071 232.816 159.679 232.611C159.287 232.396 158.863 232.289 158.405 232.289C157.939 232.289 157.509 232.396 157.117 232.611C156.735 232.816 156.427 233.134 156.193 233.563C155.96 233.992 155.843 234.515 155.843 235.131C155.843 235.756 155.955 236.284 156.179 236.713C156.413 237.142 156.721 237.464 157.103 237.679C157.486 237.884 157.906 237.987 158.363 237.987ZM168.979 228.621V238.981H167.705V228.621H168.979ZM171.808 230.063C171.566 230.063 171.36 229.979 171.192 229.811C171.024 229.643 170.94 229.438 170.94 229.195C170.94 228.952 171.024 228.747 171.192 228.579C171.36 228.411 171.566 228.327 171.808 228.327C172.042 228.327 172.238 228.411 172.396 228.579C172.564 228.747 172.648 228.952 172.648 229.195C172.648 229.438 172.564 229.643 172.396 229.811C172.238 229.979 172.042 230.063 171.808 230.063ZM172.424 231.309V238.981H171.15V231.309H172.424ZM177.718 232.359H176.108V238.981H174.834V232.359H173.84V231.309H174.834V230.763C174.834 229.904 175.053 229.279 175.492 228.887C175.94 228.486 176.654 228.285 177.634 228.285V229.349C177.074 229.349 176.677 229.461 176.444 229.685C176.22 229.9 176.108 230.259 176.108 230.763V231.309H177.718V232.359ZM186.203 234.851C186.203 235.094 186.189 235.35 186.161 235.621H180.029C180.076 236.377 180.332 236.97 180.799 237.399C181.275 237.819 181.849 238.029 182.521 238.029C183.072 238.029 183.529 237.903 183.893 237.651C184.266 237.39 184.528 237.044 184.677 236.615H186.049C185.844 237.352 185.433 237.954 184.817 238.421C184.201 238.878 183.436 239.107 182.521 239.107C181.793 239.107 181.14 238.944 180.561 238.617C179.992 238.29 179.544 237.828 179.217 237.231C178.89 236.624 178.727 235.924 178.727 235.131C178.727 234.338 178.886 233.642 179.203 233.045C179.52 232.448 179.964 231.99 180.533 231.673C181.112 231.346 181.774 231.183 182.521 231.183C183.249 231.183 183.893 231.342 184.453 231.659C185.013 231.976 185.442 232.415 185.741 232.975C186.049 233.526 186.203 234.151 186.203 234.851ZM184.887 234.585C184.887 234.1 184.78 233.684 184.565 233.339C184.35 232.984 184.056 232.718 183.683 232.541C183.319 232.354 182.913 232.261 182.465 232.261C181.821 232.261 181.27 232.466 180.813 232.877C180.365 233.288 180.108 233.857 180.043 234.585H184.887Z" fill="black"/>
<path d="M27.4536 215.243C30.0276 213.501 31.742 211.374 32.5966 208.864C33.2306 207.005 33.6288 204.508 33.7911 201.373L10.0046 216.997C12.4702 217.622 15.0087 217.912 17.5517 217.86C21.5764 217.86 24.877 216.988 27.4536 215.243Z" fill="#06A0FF"/>
<path d="M33.8786 197.763V175H31.2157L20.8384 181.817V200.962C20.8384 203.526 20.4986 205.35 19.8189 206.433C19.1393 207.515 18.0703 208.056 16.6121 208.053C15.8639 208.099 15.1201 207.908 14.4857 207.509C13.7593 206.954 13.2182 206.191 12.9337 205.322C12.6293 204.424 12.467 203.044 12.4467 201.183L0 202.88C0.230777 206.141 0.982701 208.876 2.25578 211.085C3.32512 212.96 4.86761 214.522 6.7293 215.615L9.01171 214.094L33.8786 197.763Z" fill="#06A0FF"/>
<path d="M20.827 175V178.283L25.8254 175H20.827Z" fill="#06A0FF"/>
<path d="M62.2452 213.402C62.3336 214.057 62.4684 214.705 62.6484 215.342C62.8824 215.965 63.1714 216.565 63.5119 217.137H74.4903C73.9788 216.145 73.5795 215.099 73.2996 214.018C73.0906 212.904 72.9988 211.772 73.0258 210.64V203.644L51.4684 217.807C53.5919 217.756 55.6902 217.335 57.6689 216.563C59.3768 215.801 60.9285 214.729 62.2452 213.402Z" fill="#06A0FF"/>
<path d="M54.8578 211.332C53.6126 211.332 52.6692 211.039 52.0276 210.453C51.7123 210.17 51.4627 209.822 51.2964 209.432C51.1302 209.042 51.0513 208.621 51.0652 208.198C51.0697 207.79 51.159 207.388 51.3273 207.016C51.4956 206.645 51.7393 206.313 52.0428 206.041C52.6743 205.43 54.1782 204.807 56.5544 204.173C58.3004 203.732 59.978 203.226 61.5871 202.651V204.519C61.6363 205.742 61.3938 206.958 60.8796 208.068L60.8605 208.106L73.0334 200.118V197.17C73.012 195.621 72.7198 194.087 72.1699 192.639C71.7098 191.238 70.8993 189.977 69.8152 188.976C68.2985 187.685 66.4563 186.834 64.4896 186.519C62.1089 186.131 59.7007 185.936 57.2886 185.937L42.6203 195.568L51.438 196.5C51.897 195.176 52.5006 194.275 53.2487 193.796C54.2073 193.184 55.6452 192.879 57.5625 192.879C59.0562 192.879 60.0997 193.165 60.6932 193.739C61.2866 194.313 61.5871 195.321 61.5871 196.759C60.234 197.298 58.8523 197.763 57.4483 198.151C56.1448 198.504 53.2982 199.123 48.9083 200.008C45.2489 200.733 42.7395 201.844 41.3802 203.34C40.0209 204.836 39.3399 206.738 39.3374 209.046C39.3207 210.23 39.5661 211.403 40.0561 212.481C40.546 213.559 41.2684 214.515 42.1714 215.281C43.4491 216.377 44.9914 217.119 46.6449 217.434L56.1131 211.21C55.6988 211.286 55.2789 211.327 54.8578 211.332Z" fill="#06A0FF"/>
<path d="M45.5189 187.808C44.173 188.511 43.0028 189.508 42.0953 190.726C41.5726 191.489 41.159 192.321 40.8666 193.199L51.5179 186.203C50.9891 186.268 50.468 186.344 49.962 186.431C48.4159 186.645 46.9151 187.11 45.5189 187.808Z" fill="#06A0FF"/>
<path d="M120.192 217.137H131.919V197.965C131.936 196.41 131.77 194.859 131.425 193.343L120.192 200.742V217.137Z" fill="#06A0FF"/>
<path d="M111.888 217.137V206.182L100.16 213.889V217.137H111.888Z" fill="#06A0FF"/>
<path d="M111.888 201.385C111.888 199.181 112.307 197.581 113.147 196.584C113.55 196.098 114.059 195.711 114.634 195.452C115.21 195.193 115.837 195.069 116.468 195.089C117.047 195.093 117.617 195.239 118.126 195.515C118.636 195.791 119.07 196.188 119.389 196.672C119.567 196.904 119.71 197.16 119.815 197.432L130.36 190.505C130.032 189.907 129.631 189.353 129.165 188.854C127.327 186.889 124.772 185.906 121.5 185.906C119.578 185.848 117.668 186.215 115.905 186.983C114.383 187.7 112.708 189.057 110.88 191.053C110.09 189.478 108.882 188.15 107.387 187.215C105.967 186.35 104.04 185.919 101.605 185.921C101.021 185.921 100.437 185.95 99.8555 186.009L80.1165 198.981V217.137H89.8015L91.8442 215.794V201.56C91.8442 199.239 92.2766 197.572 93.1414 196.557C93.5435 196.07 94.0508 195.68 94.6253 195.416C95.1998 195.152 95.8266 195.023 96.4585 195.036C97.2386 195.021 98.001 195.269 98.623 195.74C99.2372 196.209 99.6905 196.858 99.9202 197.596C100.115 198.493 100.193 199.411 100.152 200.327V210.339L111.888 202.644V201.385Z" fill="#06A0FF"/>
<path d="M80.124 186.614V195.447L91.0491 188.268V186.614H80.124Z" fill="#06A0FF"/>
<path d="M151.035 217.137V208.51L139.337 216.198V217.137H151.035Z" fill="#06A0FF"/>
<path d="M151.035 186.614H141.662L139.337 188.143V212.663L151.035 204.976V186.614Z" fill="#06A0FF"/>
<path d="M151.035 182.962V180.455L147.219 182.962H151.035Z" fill="#EA3A3A"/>
<path d="M139.337 175V182.962H141.814L151.035 176.902V175H139.337Z" fill="#EA3A3A"/>
<path d="M158.939 175V175.259L159.331 175H158.939Z" fill="#EA3A3A"/>
<path d="M158.939 217.137H170.637V195.629L158.939 203.317V217.137Z" fill="#06A0FF"/>
<path d="M170.637 182.962V175H159.331L158.939 175.259V182.962H170.637Z" fill="#EA3A3A"/>
<path d="M158.939 186.614V199.779L170.637 192.091V186.614H158.939Z" fill="#06A0FF"/>
<path d="M211.998 204.778V203.454C212.026 201.277 211.782 199.104 211.271 196.987L199.445 204.778H211.998Z" fill="#06A0FF"/>
<path d="M194.233 217.826C198.889 217.826 202.464 217.16 204.957 215.828C207.45 214.497 209.576 212.298 211.336 209.232L199.81 208.167C199.254 208.929 198.563 209.583 197.771 210.096C196.77 210.661 195.641 210.957 194.492 210.956C193.383 210.978 192.291 210.678 191.35 210.092L183.361 215.345C183.792 215.626 184.239 215.88 184.7 216.106C187.011 217.252 190.188 217.826 194.233 217.826Z" fill="#06A0FF"/>
<path d="M188.542 204.778H194.028L210.237 194.127C210.164 193.971 210.096 193.807 210.016 193.659C208.733 191.189 206.714 189.178 204.238 187.907C201.702 186.586 198.253 185.925 193.891 185.925C188.504 185.925 184.283 187.401 181.227 190.353C178.171 193.305 176.643 197.166 176.643 201.936C176.643 205.289 177.404 208.205 178.926 210.686C179.512 211.642 180.197 212.534 180.968 213.348L189.337 207.848C188.906 206.875 188.638 205.838 188.542 204.778ZM189.935 195.063C190.416 194.441 191.021 193.925 191.711 193.547C192.4 193.169 193.161 192.937 193.944 192.865C194.727 192.794 195.517 192.885 196.264 193.132C197.01 193.379 197.698 193.777 198.284 194.302C199.271 195.278 199.879 196.897 200.11 199.159H188.584C188.767 197.349 189.217 195.983 189.935 195.063Z" fill="#06A0FF"/>
</svg>
