<svg width="169" height="238" viewBox="0 0 169 238" fill="none" xmlns="http://www.w3.org/2000/svg">
<path d="M74.3515 0.715682C73.953 1.66108 76.0546 2.96622 77.5689 5.12474C80.6647 9.55052 79.6663 15.2522 79.1336 18.1762C77.7032 26.233 73.3825 27.17 65.1397 41.8989C62.1823 47.1906 61.3643 49.5123 60.9155 51.0433C59.7115 54.9755 59.0236 60.0915 59.8961 67.0481C59.8961 67.0481 60.5799 74.5778 60.5799 78.4472C60.6596 79.1333 60.8525 79.8904 61.3475 80.0703C62.2662 80.4049 63.9399 78.648 64.737 77.1755C67.493 72.1055 61.8006 66.8222 64.4097 60.5642C64.8628 59.464 65.7689 57.8744 66.1758 57.9957C66.4946 58.0919 66.5953 59.2214 66.5953 60.4805C66.5701 62.2375 66.8805 62.0827 67.3629 65.6384C68.3025 72.5239 67.6565 76.9329 68.9737 77.3512C70.0602 77.6817 72.0276 75.4814 72.9588 73.1681C74.3263 69.7504 72.8707 67.4873 72.3967 62.2918C71.8472 56.2514 73.0679 51.06 73.5167 51.0684C74.125 51.0684 74.6829 60.6018 74.7752 62.2207C75.1947 69.2819 74.901 71.7876 75.9623 72.1223C77.2543 72.5406 79.7041 69.4785 80.5766 66.475C81.3862 63.6974 80.3501 62.2626 79.7377 58.5981C78.5128 51.219 79.9054 41.7316 83.6556 36.9837C83.9073 36.6616 84.675 35.7288 84.4946 35.5196C83.9618 34.9172 76.2518 41.4932 75.6141 40.8197C75.2618 40.4474 77.053 37.8413 79.4608 35.8668C80.8703 34.7122 85.6062 30.847 90.4345 32.5203C90.9378 32.696 93.7484 33.679 94.7006 36.1471C95.6906 38.7072 93.6267 40.1211 93.933 44.3042C94.0085 45.3751 94.2266 47.9059 96.0304 50.0226C97.7083 52.0013 100.599 53.3984 101.551 52.5995C102.419 51.8758 101.018 49.8846 100.854 46.743C100.636 42.6812 102.654 39.8073 103.648 37.8914C106.849 31.7297 106.358 22.2632 103.229 15.5785C97.8803 4.14587 85.0525 1.35571 81.9064 0.661302C81.4743 0.565089 75.0017 -0.811173 74.3515 0.715682Z" fill="#FFFF00"/>
<path d="M0.287572 72.8752C1.06781 73.5487 2.95968 71.9549 5.48916 71.2019C10.6656 69.6333 15.7875 72.3523 18.4176 73.7495C25.6495 77.5896 25.2049 81.9819 36.7071 94.3474C40.839 98.7899 42.8064 100.258 44.1236 101.178C47.5004 103.534 52.1692 105.78 59.0739 107.093C59.0739 107.093 66.4652 108.767 70.1525 109.967C70.832 110.101 71.6123 110.151 71.9395 109.741C72.5393 108.972 71.3816 106.842 70.228 105.629C66.2387 101.446 59.4473 105.211 54.2876 100.806C53.3816 100.036 52.1441 98.6895 52.3874 98.3381C52.5761 98.0662 53.6878 98.3046 54.8833 98.7146C56.5612 99.2793 56.4983 98.9363 60.0387 99.5763C66.8973 100.831 70.9159 102.793 71.7088 101.668C72.3632 100.739 70.8698 98.1917 68.9486 96.5937C66.1171 94.2386 63.4953 94.9205 58.4028 93.7659C52.4755 92.4189 47.9157 89.6622 48.0457 89.2355C48.2387 88.6624 57.5009 91.0803 59.0739 91.4903C65.9325 93.2807 68.2354 94.3265 68.8814 93.4229C69.6701 92.3227 67.5181 89.0557 64.9215 87.2987C62.5221 85.6757 60.8316 86.2153 57.1485 85.6589C49.732 84.5462 41.1159 80.2919 37.7474 75.268C37.5167 74.9291 36.8623 73.9126 36.6106 74.013C35.8723 74.3268 39.7567 83.6761 38.9178 84.0526C38.4563 84.2701 36.5225 81.7686 35.3857 78.878C34.7188 77.1797 32.4829 71.4948 35.5871 67.4329C35.9101 67.0146 37.7139 64.6511 40.3608 64.5047C43.1084 64.3583 43.8215 66.7511 47.9115 67.755C48.956 68.0102 51.4393 68.5916 54.0108 67.5333C56.4228 66.5461 58.6461 64.2411 58.1804 63.0908C57.761 62.045 55.4244 62.7561 52.379 61.9446C48.44 60.8946 46.3174 58.0919 44.7989 56.5567C39.9077 51.6164 30.7337 49.1567 23.4053 50.0602C10.8502 51.5996 4.21393 62.9025 2.59053 65.6718C2.33465 66.0692 -0.979267 71.7834 0.287572 72.8752Z" fill="#00AA00"/>
<path d="M47.1732 165.034C48.0541 164.503 47.1229 162.219 47.1732 159.596C47.2739 154.2 51.452 150.184 53.5997 148.118C59.4934 142.449 63.5457 144.227 78.8946 137.141C84.4066 134.593 86.4159 133.18 87.7037 132.213C90.9967 129.741 94.5707 126.005 97.9643 119.865C97.9643 119.865 101.849 113.372 104.131 110.243C104.47 109.641 104.76 108.917 104.466 108.482C103.921 107.675 101.53 108.114 100.016 108.834C94.7972 111.323 96.2863 118.928 90.4891 122.471C89.4739 123.09 87.8086 123.847 87.5527 123.508C87.3514 123.245 87.9218 122.253 88.6769 121.258C89.734 119.852 89.3942 119.793 91.0973 116.631C94.3987 110.515 97.528 107.311 96.7017 106.215C96.0179 105.307 93.1234 105.935 91.0092 107.261C87.8883 109.223 87.7331 111.908 85.0526 116.388C81.9358 121.596 77.892 125.081 77.5312 124.813C77.0446 124.453 82.2127 116.418 83.0894 115.054C86.9193 109.097 88.6224 107.24 87.9638 106.345C87.1584 105.261 83.3788 106.29 80.8997 108.21C78.6135 109.984 78.6009 111.753 76.9356 115.075C73.5797 121.768 66.868 128.624 61.0288 130.268C60.6344 130.377 59.4641 130.686 59.4893 130.958C59.5606 131.757 69.6785 130.958 69.796 131.879C69.8589 132.385 66.8596 133.443 63.7638 133.627C61.9432 133.736 55.8272 134.1 52.9118 129.9C52.6097 129.482 50.915 127.026 51.5988 124.462C52.3077 121.81 54.812 121.872 57.0311 118.313C57.5974 117.401 58.9104 115.225 58.709 112.456C58.5161 109.867 57.0017 107.047 55.7726 107.131C54.64 107.21 54.6023 109.641 52.8866 112.28C50.6633 115.69 47.3368 116.836 45.403 117.806C39.1821 120.915 34.0014 128.858 32.592 136.099C30.1799 148.486 38.9094 158.27 41.0488 160.667C41.3172 160.989 45.7386 165.9 47.1732 165.034Z" fill="#8A0094"/>
<path d="M149.359 150.025C149.124 149.025 146.658 149.189 144.158 148.352C139.044 146.587 136.506 141.383 135.202 138.71C131.615 131.364 134.56 128.072 132.546 111.327C131.821 105.316 131.095 102.96 130.571 101.455C129.228 97.5684 126.77 93.0213 121.963 87.9095C121.963 87.9095 116.975 82.2162 114.693 79.083C114.223 78.5768 113.619 78.079 113.116 78.2254C112.176 78.4932 111.857 80.8943 112.076 82.5508C112.839 88.2692 120.553 89.2104 122.143 95.7989C122.424 96.9535 122.63 98.7689 122.227 98.9112C121.913 99.0199 121.153 98.1749 120.428 97.1459C119.412 95.7111 119.253 96.0164 116.765 93.4229C111.95 88.4031 109.861 84.4458 108.56 84.8892C107.482 85.2615 107.189 88.1939 107.801 90.6118C108.707 94.18 111.22 95.1547 114.664 99.0827C118.67 103.647 120.742 108.558 120.377 108.821C119.882 109.172 113.812 101.785 112.785 100.53C108.288 95.0627 107.042 92.8665 105.985 93.2179C104.705 93.6362 104.517 97.5516 105.565 100.492C106.551 103.211 108.233 103.768 110.888 106.374C116.228 111.624 120.692 120.116 120.461 126.156C120.461 126.574 120.373 127.771 120.646 127.829C121.426 128.009 123.792 118.166 124.702 118.338C125.21 118.434 125.298 121.592 124.509 124.613C124.052 126.374 122.508 132.289 117.604 133.753C117.093 133.903 114.249 134.757 112.017 133.334C109.706 131.845 110.54 129.49 107.822 126.286C107.126 125.449 105.46 123.546 102.755 122.889C100.238 122.274 97.0665 122.839 96.7645 124.039C96.4918 125.135 98.799 125.926 100.783 128.369C103.35 131.527 103.418 135.037 103.72 137.154C104.764 144.014 110.737 151.376 117.21 154.957C128.276 161.073 140.307 155.819 143.256 154.539C143.692 154.334 149.728 151.657 149.359 150.025Z" fill="#D40005"/>
<path d="M166.34 47.7553C165.312 47.6674 164.721 50.0644 163.127 52.1685C159.863 56.4688 154.116 57.272 151.163 57.6819C143.05 58.8156 140.819 55.0005 124.228 51.7418C118.267 50.5664 115.805 50.5329 114.202 50.5622C110.079 50.6333 104.974 51.5578 98.6228 54.5404C98.6228 54.5404 91.651 57.5104 87.9596 58.7235C87.3303 59.0122 86.6717 59.4305 86.6508 59.9534C86.6172 60.9281 88.8069 61.9738 90.4597 62.275C96.1479 63.3208 99.4282 56.2973 106.203 56.8369C107.39 56.9331 109.185 57.2971 109.194 57.7238C109.194 58.0542 108.162 58.5102 106.958 58.8825C105.28 59.4012 105.515 59.648 102.272 61.2041C95.9801 64.2202 91.5755 64.969 91.6007 66.3494C91.6007 67.4873 94.3273 68.6711 96.819 68.8593C100.502 69.102 102.209 67.0229 107.021 64.969C112.613 62.5804 117.927 62.1328 118.07 62.5595C118.255 63.1368 109.336 66.6088 107.822 67.1986C101.215 69.7713 98.7403 70.2732 98.7487 71.3818C98.7487 72.7329 102.423 74.1134 105.561 74.013C108.456 73.921 109.504 72.4945 112.814 70.7836C119.471 67.3367 128.947 65.7303 134.627 67.8177C135.013 67.96 136.141 68.3992 136.305 68.1607C136.724 67.4747 128.062 62.1872 128.507 61.3757C128.754 60.9281 131.791 61.8191 134.417 63.4965C135.957 64.4754 141.129 67.7675 140.999 72.871C140.999 73.4022 140.919 76.3681 138.86 78.0372C136.725 79.7648 134.736 78.2463 130.843 79.8276C129.845 80.2459 127.487 81.2206 126.04 83.5924C124.673 85.8011 124.232 88.9678 125.285 89.6246C126.246 90.2269 127.714 88.2818 130.655 87.1523C134.459 85.6966 137.828 86.734 139.963 87.0686C146.83 88.1981 155.702 84.8097 161.109 79.7774C170.363 71.1684 169.079 58.1379 168.752 54.942C168.693 54.4609 168.01 47.8975 166.34 47.7553Z" fill="#002BAA"/>
<path d="M19.2456 182.855C15.3193 183.307 14.9166 183.608 14.9166 187.824V206.398C14.9166 213.024 13.8595 216.487 10.4868 219.499C9.10125 220.729 7.51888 221.719 5.8054 222.427L5 220.922C6.31702 220.31 7.46413 219.386 8.34146 218.231C9.2188 217.077 9.79978 215.725 10.0338 214.295C10.4868 211.886 10.5372 208.974 10.5372 204.758V187.824C10.5372 183.608 10.0841 183.256 5.95642 182.855V181.449H19.2456V182.855Z" fill="#06A0FF"/>
<path d="M40.5847 214.078V212.672C43.8567 212.254 44.2594 211.769 43.5546 209.861C42.8499 207.954 41.8767 205.394 40.8364 202.231H29.9676C29.1622 204.49 28.4071 206.448 27.7024 208.506C26.5949 211.769 27.2829 212.17 31.4274 212.689V214.095H19.7993V212.689C22.9706 212.271 23.776 211.936 25.5378 207.418L35.9578 181.064L37.5686 180.763C40.7357 189.347 44.209 198.834 47.3803 207.535C48.9912 211.903 49.4442 212.304 53.0182 212.706V214.111L40.5847 214.078ZM35.5509 187.306C33.9401 191.623 32.2286 196.191 30.7185 200.156H40.1359L35.5509 187.306Z" fill="#06A0FF"/>
<path d="M83.2714 214.078V212.672C87.3991 212.254 87.5502 211.969 87.4998 206.598L87.5501 186.101C83.4224 195.304 76.7778 209.644 75.016 214.061H73.7072C71.9957 209.493 66.3075 195.689 62.4818 186.603C61.6429 204.172 61.5757 208.138 61.5757 209.091C61.6261 211.903 62.8845 212.304 66.3075 212.655V214.061H54.3816V212.655C57.318 212.354 58.5093 211.752 58.912 209.041C59.214 206.833 59.2644 205.025 60.569 186.703C60.7703 184.093 60.2711 183.239 55.8414 182.838V181.432H64.596L75.7207 206.883L87.6508 181.432H96.46V182.838C92.1309 183.34 91.5772 183.792 91.6779 187.306L91.8792 206.582C92.0806 211.953 92.2316 212.204 96.6613 212.655V214.061L83.2714 214.078Z" fill="#06A0FF"/>
<path d="M101.213 214.078V212.672C105.34 212.221 105.743 212.02 105.743 207.753V187.824C105.743 183.507 105.324 183.307 101.213 182.855V181.449H114.703V182.855C110.508 183.307 110.122 183.507 110.122 187.824V207.753C110.122 212.07 110.542 212.221 114.703 212.672V214.078H101.213Z" fill="#06A0FF"/>
<path d="M119.565 214.078V212.672C123.693 212.221 124.096 212.02 124.096 207.753V187.824C124.096 183.507 123.676 183.307 119.565 182.855V181.449H133.056V182.855C128.899 183.307 128.479 183.52 128.479 187.824V207.753C128.479 212.07 128.899 212.221 133.06 212.672V214.078H119.565Z" fill="#06A0FF"/>
<path d="M164.064 206.109C163.762 207.414 162.386 212.584 161.899 214.09H137.435V212.685C142.116 212.333 142.469 211.882 142.469 207.765V187.937C142.469 183.47 141.915 183.219 138.14 182.867V181.462H153.543C158.275 181.462 160.255 181.412 160.842 181.361C160.893 182.616 161.094 186.381 161.295 189.042L159.785 189.293C159.441 187.964 158.933 186.683 158.275 185.478C157.47 183.804 156.312 183.47 153.292 183.47H148.509C146.949 183.47 146.831 183.62 146.831 185.076V196.17H152.419C156.194 196.17 156.446 195.417 157.033 191.987H158.594V202.344H157.033C156.379 198.73 155.976 198.228 152.352 198.228H146.815V208.2C146.815 211.714 147.922 212.016 150.439 212.066H155.12C158.191 212.066 158.694 211.614 159.802 210.309C160.758 209.255 161.815 207.197 162.52 205.707L164.064 206.109Z" fill="#06A0FF"/>
<path d="M34.53 226.234L32.51 233.204H31.49L29.87 227.594L28.19 233.204L27.18 233.214L25.23 226.234H26.2L27.72 232.144L29.4 226.234H30.42L32.02 232.124L33.55 226.234H34.53ZM40.5259 230.254C40.5259 230.427 40.5159 230.61 40.4959 230.804H36.1159C36.1492 231.344 36.3325 231.767 36.6659 232.074C37.0059 232.374 37.4159 232.524 37.8959 232.524C38.2892 232.524 38.6159 232.434 38.8759 232.254C39.1425 232.067 39.3292 231.82 39.4359 231.514H40.4159C40.2692 232.04 39.9759 232.47 39.5359 232.804C39.0959 233.13 38.5492 233.294 37.8959 233.294C37.3759 233.294 36.9092 233.177 36.4959 232.944C36.0892 232.71 35.7692 232.38 35.5359 231.954C35.3025 231.52 35.1859 231.02 35.1859 230.454C35.1859 229.887 35.2992 229.39 35.5259 228.964C35.7525 228.537 36.0692 228.21 36.4759 227.984C36.8892 227.75 37.3625 227.634 37.8959 227.634C38.4159 227.634 38.8759 227.747 39.2759 227.974C39.6759 228.2 39.9825 228.514 40.1959 228.914C40.4159 229.307 40.5259 229.754 40.5259 230.254ZM39.5859 230.064C39.5859 229.717 39.5092 229.42 39.3559 229.174C39.2025 228.92 38.9925 228.73 38.7259 228.604C38.4659 228.47 38.1759 228.404 37.8559 228.404C37.3959 228.404 37.0025 228.55 36.6759 228.844C36.3559 229.137 36.1725 229.544 36.1259 230.064H39.5859ZM47.883 229.614C48.1364 229.654 48.3664 229.757 48.573 229.924C48.7864 230.09 48.953 230.297 49.073 230.544C49.1997 230.79 49.263 231.054 49.263 231.334C49.263 231.687 49.173 232.007 48.993 232.294C48.813 232.574 48.5497 232.797 48.203 232.964C47.863 233.124 47.4597 233.204 46.993 233.204H44.393V226.234H46.893C47.3664 226.234 47.7697 226.314 48.103 226.474C48.4364 226.627 48.6864 226.837 48.853 227.104C49.0197 227.37 49.103 227.67 49.103 228.004C49.103 228.417 48.9897 228.76 48.763 229.034C48.543 229.3 48.2497 229.494 47.883 229.614ZM45.303 229.244H46.833C47.2597 229.244 47.5897 229.144 47.823 228.944C48.0564 228.744 48.173 228.467 48.173 228.114C48.173 227.76 48.0564 227.484 47.823 227.284C47.5897 227.084 47.253 226.984 46.813 226.984H45.303V229.244ZM46.913 232.454C47.3664 232.454 47.7197 232.347 47.973 232.134C48.2264 231.92 48.353 231.624 48.353 231.244C48.353 230.857 48.2197 230.554 47.953 230.334C47.6864 230.107 47.3297 229.994 46.883 229.994H45.303V232.454H46.913ZM51.4359 228.614C51.5959 228.3 51.8225 228.057 52.1159 227.884C52.4159 227.71 52.7792 227.624 53.2059 227.624V228.564H52.9659C51.9459 228.564 51.4359 229.117 51.4359 230.224V233.204H50.5259V227.724H51.4359V228.614ZM54.7263 226.834C54.553 226.834 54.4063 226.774 54.2863 226.654C54.1663 226.534 54.1063 226.387 54.1063 226.214C54.1063 226.04 54.1663 225.894 54.2863 225.774C54.4063 225.654 54.553 225.594 54.7263 225.594C54.893 225.594 55.033 225.654 55.1463 225.774C55.2663 225.894 55.3263 226.04 55.3263 226.214C55.3263 226.387 55.2663 226.534 55.1463 226.654C55.033 226.774 54.893 226.834 54.7263 226.834ZM55.1663 227.724V233.204H54.2563V227.724H55.1663ZM59.3873 227.624C60.0539 227.624 60.5939 227.827 61.0073 228.234C61.4206 228.634 61.6273 229.214 61.6273 229.974V233.204H60.7273V230.104C60.7273 229.557 60.5906 229.14 60.3173 228.854C60.0439 228.56 59.6706 228.414 59.1973 228.414C58.7173 228.414 58.3339 228.564 58.0473 228.864C57.7673 229.164 57.6273 229.6 57.6273 230.174V233.204H56.7173V227.724H57.6273V228.504C57.8073 228.224 58.0506 228.007 58.3573 227.854C58.6706 227.7 59.0139 227.624 59.3873 227.624ZM65.3738 227.634C65.8471 227.634 66.2604 227.737 66.6138 227.944C66.9738 228.15 67.2404 228.41 67.4138 228.724V227.724H68.3338V233.324C68.3338 233.824 68.2271 234.267 68.0138 234.654C67.8004 235.047 67.4938 235.354 67.0938 235.574C66.7004 235.794 66.2404 235.904 65.7138 235.904C64.9938 235.904 64.3938 235.734 63.9138 235.394C63.4338 235.054 63.1504 234.59 63.0638 234.004H63.9638C64.0638 234.337 64.2704 234.604 64.5838 234.804C64.8971 235.01 65.2738 235.114 65.7138 235.114C66.2138 235.114 66.6204 234.957 66.9338 234.644C67.2538 234.33 67.4138 233.89 67.4138 233.324V232.174C67.2338 232.494 66.9671 232.76 66.6138 232.974C66.2604 233.187 65.8471 233.294 65.3738 233.294C64.8871 233.294 64.4438 233.174 64.0438 232.934C63.6504 232.694 63.3404 232.357 63.1138 231.924C62.8871 231.49 62.7738 230.997 62.7738 230.444C62.7738 229.884 62.8871 229.394 63.1138 228.974C63.3404 228.547 63.6504 228.217 64.0438 227.984C64.4438 227.75 64.8871 227.634 65.3738 227.634ZM67.4138 230.454C67.4138 230.04 67.3304 229.68 67.1638 229.374C66.9971 229.067 66.7704 228.834 66.4838 228.674C66.2038 228.507 65.8938 228.424 65.5538 228.424C65.2138 228.424 64.9038 228.504 64.6238 228.664C64.3438 228.824 64.1204 229.057 63.9538 229.364C63.7871 229.67 63.7038 230.03 63.7038 230.444C63.7038 230.864 63.7871 231.23 63.9538 231.544C64.1204 231.85 64.3438 232.087 64.6238 232.254C64.9038 232.414 65.2138 232.494 65.5538 232.494C65.8938 232.494 66.2038 232.414 66.4838 232.254C66.7704 232.087 66.9971 231.85 67.1638 231.544C67.3304 231.23 67.4138 230.867 67.4138 230.454ZM74.7076 226.234C75.4676 226.234 76.1242 226.377 76.6776 226.664C77.2376 226.944 77.6642 227.347 77.9576 227.874C78.2576 228.4 78.4076 229.02 78.4076 229.734C78.4076 230.447 78.2576 231.067 77.9576 231.594C77.6642 232.114 77.2376 232.514 76.6776 232.794C76.1242 233.067 75.4676 233.204 74.7076 233.204H72.5376V226.234H74.7076ZM74.7076 232.454C75.6076 232.454 76.2942 232.217 76.7676 231.744C77.2409 231.264 77.4776 230.594 77.4776 229.734C77.4776 228.867 77.2376 228.19 76.7576 227.704C76.2842 227.217 75.6009 226.974 74.7076 226.974H73.4476V232.454H74.7076ZM80.5179 228.614C80.6779 228.3 80.9046 228.057 81.1979 227.884C81.4979 227.71 81.8612 227.624 82.2879 227.624V228.564H82.0479C81.0279 228.564 80.5179 229.117 80.5179 230.224V233.204H79.6079V227.724H80.5179V228.614ZM88.3384 230.254C88.3384 230.427 88.3284 230.61 88.3084 230.804H83.9284C83.9617 231.344 84.145 231.767 84.4784 232.074C84.8184 232.374 85.2284 232.524 85.7084 232.524C86.1017 232.524 86.4284 232.434 86.6884 232.254C86.955 232.067 87.1417 231.82 87.2484 231.514H88.2284C88.0817 232.04 87.7884 232.47 87.3484 232.804C86.9084 233.13 86.3617 233.294 85.7084 233.294C85.1884 233.294 84.7217 233.177 84.3084 232.944C83.9017 232.71 83.5817 232.38 83.3484 231.954C83.115 231.52 82.9984 231.02 82.9984 230.454C82.9984 229.887 83.1117 229.39 83.3384 228.964C83.565 228.537 83.8817 228.21 84.2884 227.984C84.7017 227.75 85.175 227.634 85.7084 227.634C86.2284 227.634 86.6884 227.747 87.0884 227.974C87.4884 228.2 87.795 228.514 88.0084 228.914C88.2284 229.307 88.3384 229.754 88.3384 230.254ZM87.3984 230.064C87.3984 229.717 87.3217 229.42 87.1684 229.174C87.015 228.92 86.805 228.73 86.5384 228.604C86.2784 228.47 85.9884 228.404 85.6684 228.404C85.2084 228.404 84.815 228.55 84.4884 228.844C84.1684 229.137 83.985 229.544 83.9384 230.064H87.3984ZM89.1995 230.444C89.1995 229.884 89.3129 229.394 89.5395 228.974C89.7662 228.547 90.0762 228.217 90.4695 227.984C90.8695 227.75 91.3129 227.634 91.7995 227.634C92.2795 227.634 92.6962 227.737 93.0495 227.944C93.4029 228.15 93.6662 228.41 93.8395 228.724V227.724H94.7595V233.204H93.8395V232.184C93.6595 232.504 93.3895 232.77 93.0295 232.984C92.6762 233.19 92.2629 233.294 91.7895 233.294C91.3029 233.294 90.8629 233.174 90.4695 232.934C90.0762 232.694 89.7662 232.357 89.5395 231.924C89.3129 231.49 89.1995 230.997 89.1995 230.444ZM93.8395 230.454C93.8395 230.04 93.7562 229.68 93.5895 229.374C93.4229 229.067 93.1962 228.834 92.9095 228.674C92.6295 228.507 92.3195 228.424 91.9795 228.424C91.6395 228.424 91.3295 228.504 91.0495 228.664C90.7695 228.824 90.5462 229.057 90.3795 229.364C90.2129 229.67 90.1295 230.03 90.1295 230.444C90.1295 230.864 90.2129 231.23 90.3795 231.544C90.5462 231.85 90.7695 232.087 91.0495 232.254C91.3295 232.414 91.6395 232.494 91.9795 232.494C92.3195 232.494 92.6295 232.414 92.9095 232.254C93.1962 232.087 93.4229 231.85 93.5895 231.544C93.7562 231.23 93.8395 230.867 93.8395 230.454ZM102.887 227.624C103.314 227.624 103.694 227.714 104.027 227.894C104.361 228.067 104.624 228.33 104.817 228.684C105.011 229.037 105.107 229.467 105.107 229.974V233.204H104.207V230.104C104.207 229.557 104.071 229.14 103.797 228.854C103.531 228.56 103.167 228.414 102.707 228.414C102.234 228.414 101.857 228.567 101.577 228.874C101.297 229.174 101.157 229.61 101.157 230.184V233.204H100.257V230.104C100.257 229.557 100.121 229.14 99.8473 228.854C99.5807 228.56 99.2173 228.414 98.7573 228.414C98.284 228.414 97.9073 228.567 97.6273 228.874C97.3473 229.174 97.2073 229.61 97.2073 230.184V233.204H96.2973V227.724H97.2073V228.514C97.3873 228.227 97.6273 228.007 97.9273 227.854C98.234 227.7 98.5707 227.624 98.9373 227.624C99.3973 227.624 99.804 227.727 100.157 227.934C100.511 228.14 100.774 228.444 100.947 228.844C101.101 228.457 101.354 228.157 101.707 227.944C102.061 227.73 102.454 227.624 102.887 227.624ZM108.54 233.294C108.12 233.294 107.743 233.224 107.41 233.084C107.077 232.937 106.813 232.737 106.62 232.484C106.427 232.224 106.32 231.927 106.3 231.594H107.24C107.267 231.867 107.393 232.09 107.62 232.264C107.853 232.437 108.157 232.524 108.53 232.524C108.877 232.524 109.15 232.447 109.35 232.294C109.55 232.14 109.65 231.947 109.65 231.714C109.65 231.474 109.543 231.297 109.33 231.184C109.117 231.064 108.787 230.947 108.34 230.834C107.933 230.727 107.6 230.62 107.34 230.514C107.087 230.4 106.867 230.237 106.68 230.024C106.5 229.804 106.41 229.517 106.41 229.164C106.41 228.884 106.493 228.627 106.66 228.394C106.827 228.16 107.063 227.977 107.37 227.844C107.677 227.704 108.027 227.634 108.42 227.634C109.027 227.634 109.517 227.787 109.89 228.094C110.263 228.4 110.463 228.82 110.49 229.354H109.58C109.56 229.067 109.443 228.837 109.23 228.664C109.023 228.49 108.743 228.404 108.39 228.404C108.063 228.404 107.803 228.474 107.61 228.614C107.417 228.754 107.32 228.937 107.32 229.164C107.32 229.344 107.377 229.494 107.49 229.614C107.61 229.727 107.757 229.82 107.93 229.894C108.11 229.96 108.357 230.037 108.67 230.124C109.063 230.23 109.383 230.337 109.63 230.444C109.877 230.544 110.087 230.697 110.26 230.904C110.44 231.11 110.533 231.38 110.54 231.714C110.54 232.014 110.457 232.284 110.29 232.524C110.123 232.764 109.887 232.954 109.58 233.094C109.28 233.227 108.933 233.294 108.54 233.294ZM118.781 226.234V226.974H116.881V233.204H115.971V226.974H114.061V226.234H118.781ZM122.291 233.294C121.778 233.294 121.311 233.177 120.891 232.944C120.478 232.71 120.151 232.38 119.911 231.954C119.678 231.52 119.561 231.02 119.561 230.454C119.561 229.894 119.681 229.4 119.921 228.974C120.168 228.54 120.501 228.21 120.921 227.984C121.341 227.75 121.811 227.634 122.331 227.634C122.851 227.634 123.321 227.75 123.741 227.984C124.161 228.21 124.491 228.537 124.731 228.964C124.978 229.39 125.101 229.887 125.101 230.454C125.101 231.02 124.974 231.52 124.721 231.954C124.474 232.38 124.138 232.71 123.711 232.944C123.284 233.177 122.811 233.294 122.291 233.294ZM122.291 232.494C122.618 232.494 122.924 232.417 123.211 232.264C123.498 232.11 123.728 231.88 123.901 231.574C124.081 231.267 124.171 230.894 124.171 230.454C124.171 230.014 124.084 229.64 123.911 229.334C123.738 229.027 123.511 228.8 123.231 228.654C122.951 228.5 122.648 228.424 122.321 228.424C121.988 228.424 121.681 228.5 121.401 228.654C121.128 228.8 120.908 229.027 120.741 229.334C120.574 229.64 120.491 230.014 120.491 230.454C120.491 230.9 120.571 231.277 120.731 231.584C120.898 231.89 121.118 232.12 121.391 232.274C121.664 232.42 121.964 232.494 122.291 232.494ZM129.873 232.464H132.313V233.204H128.963V226.234H129.873V232.464ZM133.75 226.834C133.576 226.834 133.43 226.774 133.31 226.654C133.19 226.534 133.13 226.387 133.13 226.214C133.13 226.04 133.19 225.894 133.31 225.774C133.43 225.654 133.576 225.594 133.75 225.594C133.916 225.594 134.056 225.654 134.17 225.774C134.29 225.894 134.35 226.04 134.35 226.214C134.35 226.387 134.29 226.534 134.17 226.654C134.056 226.774 133.916 226.834 133.75 226.834ZM134.19 227.724V233.204H133.28V227.724H134.19ZM137.971 228.474H136.821V233.204H135.911V228.474H135.201V227.724H135.911V227.334C135.911 226.72 136.067 226.274 136.381 225.994C136.701 225.707 137.211 225.564 137.911 225.564V226.324C137.511 226.324 137.227 226.404 137.061 226.564C136.901 226.717 136.821 226.974 136.821 227.334V227.724H137.971V228.474ZM144.032 230.254C144.032 230.427 144.022 230.61 144.002 230.804H139.622C139.655 231.344 139.838 231.767 140.172 232.074C140.512 232.374 140.922 232.524 141.402 232.524C141.795 232.524 142.122 232.434 142.382 232.254C142.648 232.067 142.835 231.82 142.942 231.514H143.922C143.775 232.04 143.482 232.47 143.042 232.804C142.602 233.13 142.055 233.294 141.402 233.294C140.882 233.294 140.415 233.177 140.002 232.944C139.595 232.71 139.275 232.38 139.042 231.954C138.808 231.52 138.692 231.02 138.692 230.454C138.692 229.887 138.805 229.39 139.032 228.964C139.258 228.537 139.575 228.21 139.982 227.984C140.395 227.75 140.868 227.634 141.402 227.634C141.922 227.634 142.382 227.747 142.782 227.974C143.182 228.2 143.488 228.514 143.702 228.914C143.922 229.307 144.032 229.754 144.032 230.254ZM143.092 230.064C143.092 229.717 143.015 229.42 142.862 229.174C142.708 228.92 142.498 228.73 142.232 228.604C141.972 228.47 141.682 228.404 141.362 228.404C140.902 228.404 140.508 228.55 140.182 228.844C139.862 229.137 139.678 229.544 139.632 230.064H143.092Z" fill="black"/>
</svg>
