<svg id="Layer_3" data-name="Layer 3" xmlns="http://www.w3.org/2000/svg" viewBox="0 0 1000 800"><defs><style>.cls-1{fill:#ff0;}.cls-2{fill:#0a0;}.cls-3{fill:#8a0094;}.cls-4{fill:#d40005;}.cls-5{fill:#002baa;}.cls-6{fill:#009ec9;}.cls-7{font-size:21px;fill:#7a7a7a;font-family:ArialMT, Arial;letter-spacing:0.08em;}.cls-8{letter-spacing:0.1em;}.cls-9{letter-spacing:-0.01em;}.cls-10{letter-spacing:0.1em;}</style></defs><title>Artboard 198</title><path class="cls-1" d="M469.31,112c-.95,2.26,4.06,5.38,7.67,10.54,7.38,10.58,5,24.21,3.73,31.2C477.3,173,467,175.24,447.35,210.45c-7.05,12.65-9,18.2-10.07,21.86-2.87,9.4-4.51,21.63-2.43,38.26,0,0,1.63,18,1.63,27.25.19,1.64.65,3.45,1.83,3.88,2.19.8,6.18-3.4,8.08-6.92,6.57-12.12-7-24.75-.78-39.71,1.08-2.63,3.24-6.43,4.21-6.14.76.23,1,2.93,1,5.94-.06,4.2.68,3.83,1.83,12.33,2.24,16.46.7,27,3.84,28,2.59.79,7.28-4.47,9.5-10,3.26-8.17-.21-13.58-1.34-26-1.31-14.44,1.6-26.85,2.67-26.83,1.45,0,2.78,22.79,3,26.66,1,16.88.3,22.87,2.83,23.67,3.08,1,8.92-6.32,11-13.5,1.93-6.64-.54-10.07-2-18.83-2.92-17.64.4-40.32,9.34-51.67.6-.77,2.43-3,2-3.5-1.27-1.44-19.65,14.28-21.17,12.67-.84-.89,3.43-7.12,9.17-11.84,3.36-2.76,14.65-12,26.16-8,1.2.42,7.9,2.77,10.17,8.67,2.36,6.12-2.56,9.5-1.83,19.5.18,2.56.7,8.61,5,13.67,4,4.73,10.89,8.07,13.16,6.16,2.07-1.73-1.27-6.49-1.66-14-.52-9.71,4.29-16.58,6.66-21.16,7.63-14.73,6.46-37.36-1-53.34-12.75-27.33-43.33-34-50.83-35.66C486.29,111.64,470.86,108.35,469.31,112Z"/><path class="cls-2" d="M292.75,284.5c1.86,1.61,6.37-2.2,12.4-4,12.34-3.75,24.55,2.75,30.82,6.09,17.24,9.18,16.18,19.68,43.6,49.24,9.85,10.62,14.54,14.13,17.68,16.33,8.05,5.63,19.18,11,35.64,14.14,0,0,17.62,4,26.41,6.87,1.62.32,3.48.44,4.26-.54,1.43-1.84-1.33-6.93-4.08-9.83-9.51-10-25.7-1-38-11.53-2.16-1.84-5.11-5.06-4.53-5.9.45-.65,3.1-.08,5.95.9,4,1.35,3.85.53,12.29,2.06,16.35,3,25.93,7.69,27.82,5,1.56-2.22-2-8.31-6.58-12.13-6.75-5.63-13-4-25.14-6.76-14.13-3.22-25-9.81-24.69-10.83.46-1.37,22.54,4.41,26.29,5.39,16.35,4.28,21.84,6.78,23.38,4.62,1.88-2.63-3.25-10.44-9.44-14.64-5.72-3.88-9.75-2.59-18.53-3.92-17.68-2.66-38.22-12.83-46.25-24.84-.55-.81-2.11-3.24-2.71-3-1.76.75,7.5,23.1,5.5,24-1.1.52-5.71-5.46-8.42-12.37-1.59-4.06-6.92-17.65.48-27.36.77-1,5.07-6.65,11.38-7,6.55-.35,8.25,5.37,18,7.77,2.49.61,8.41,2,14.54-.53,5.75-2.36,11.05-7.87,9.94-10.62-1-2.5-6.57-.8-13.83-2.74-9.39-2.51-14.45-9.21-18.07-12.88-11.66-11.81-33.53-17.69-51-15.53-29.93,3.68-45.75,30.7-49.62,37.32C297.63,268.23,289.73,281.89,292.75,284.5Z"/><path class="cls-3" d="M404.52,504.81c2.1-1.27-.12-6.73,0-13,.24-12.9,10.2-22.5,15.32-27.44,14.05-13.55,23.71-9.3,60.3-26.24,13.14-6.09,17.93-9.47,21-11.78,7.85-5.91,16.37-14.84,24.46-29.52,0,0,9.26-15.52,14.7-23,.81-1.44,1.5-3.17.8-4.21-1.3-1.93-7-.88-10.61.84-12.44,5.95-8.89,24.13-22.71,32.6-2.42,1.48-6.39,3.29-7,2.48-.48-.63.88-3,2.68-5.38,2.52-3.36,1.71-3.5,5.77-11.06,7.87-14.62,15.33-22.28,13.36-24.9-1.63-2.17-8.53-.67-13.57,2.5-7.44,4.69-7.81,11.11-14.2,21.82-7.43,12.45-17.07,20.78-17.93,20.14-1.16-.86,11.16-20.07,13.25-23.33,9.13-14.24,13.19-18.68,11.62-20.82-1.92-2.59-10.93-.13-16.84,4.46-5.45,4.24-5.48,8.47-9.45,16.41-8,16-24,32.39-37.92,36.32-.94.26-3.73,1-3.67,1.65.17,1.91,24.29,0,24.57,2.2.15,1.21-7,3.74-14.38,4.18-4.34.26-18.92,1.13-25.87-8.91-.72-1-4.76-6.87-3.13-13,1.69-6.34,7.66-6.19,12.95-14.7,1.35-2.18,4.48-7.38,4-14-.46-6.19-4.07-12.93-7-12.73-2.7.19-2.79,6-6.88,12.31-5.3,8.15-13.23,10.89-17.84,13.21-14.83,7.43-27.18,26.42-30.54,43.73-5.75,29.61,15.06,53,20.16,58.73C390.56,495.14,401.1,506.88,404.52,504.81Z"/><path class="cls-4" d="M648.12,468.93c-.56-2.39-6.44-2-12.4-4-12.19-4.22-18.24-16.66-21.35-23.05-8.55-17.56-1.53-25.43-6.33-65.46-1.73-14.37-3.46-20-4.71-23.6-3.2-9.29-9.06-20.16-20.52-32.38,0,0-11.89-13.61-17.33-21.1-1.12-1.21-2.56-2.4-3.76-2.05-2.24.64-3,6.38-2.48,10.34,1.82,13.67,20.21,15.92,24,31.67.67,2.76,1.16,7.1.2,7.44-.75.26-2.56-1.76-4.29-4.22-2.42-3.43-2.8-2.7-8.73-8.9-11.48-12-16.46-21.46-19.56-20.4-2.57.89-3.27,7.9-1.81,13.68,2.16,8.53,8.15,10.86,16.36,20.25,9.55,10.91,14.49,22.65,13.62,23.28-1.18.84-15.65-16.82-18.1-19.82-10.72-13.07-13.69-18.32-16.21-17.48-3.05,1-3.5,10.36-1,17.39,2.35,6.5,6.36,7.83,12.69,14.06,12.73,12.55,23.37,32.85,22.82,47.29,0,1-.21,3.86.44,4,1.86.43,7.5-23.1,9.67-22.69,1.21.23,1.42,7.78-.46,15-1.09,4.21-4.77,18.35-16.46,21.85-1.22.36-8,2.4-13.32-1-5.51-3.56-3.52-9.19-10-16.85-1.66-2-5.63-6.55-12.08-8.12-6-1.47-13.56-.12-14.28,2.75-.65,2.62,4.85,4.51,9.58,10.35,6.12,7.55,6.28,15.94,7,21,2.49,16.4,16.73,34,32.16,42.56,26.38,14.62,55.06,2.06,62.09-1C634.61,479.23,649,472.83,648.12,468.93Z"/><path class="cls-5" d="M688.6,224.45c-2.45-.21-3.86,5.52-7.66,10.55-7.78,10.28-21.48,12.2-28.52,13.18-19.34,2.71-24.66-6.41-64.21-14.2-14.21-2.81-20.08-2.89-23.9-2.82-9.83.17-22,2.38-37.14,9.51,0,0-16.62,7.1-25.42,10-1.5.69-3.07,1.69-3.12,2.94-.08,2.33,5.14,4.83,9.08,5.55,13.56,2.5,21.38-14.29,37.53-13,2.83.23,7.11,1.1,7.13,2.12,0,.79-2.46,1.88-5.33,2.77-4,1.24-3.44,1.83-11.17,5.55-15,7.21-25.5,9-25.44,12.3,0,2.72,6.5,5.55,12.44,6,8.78.58,12.85-4.39,24.32-9.3,13.33-5.71,26-6.78,26.34-5.76.44,1.38-20.82,9.68-24.43,11.09-15.75,6.15-21.65,7.35-21.63,10,0,3.23,8.76,6.53,16.24,6.29,6.9-.22,9.4-3.63,17.29-7.72,15.87-8.24,38.46-12.08,52-7.09.92.34,3.61,1.39,4,.82,1-1.64-19.65-14.28-18.59-16.22.59-1.07,7.83,1.06,14.09,5.07,3.67,2.34,16,10.21,15.69,22.41,0,1.27-.19,8.36-5.1,12.35-5.09,4.13-9.83.5-19.11,4.28-2.38,1-8,3.33-11.45,9-3.26,5.28-4.31,12.85-1.8,14.42,2.29,1.44,5.79-3.21,12.8-5.91,9.07-3.48,17.1-1,22.19-.2,16.37,2.7,37.52-5.4,50.41-17.43,22.06-20.58,19-51.73,18.22-59.37C694.21,240.48,692.58,224.79,688.6,224.45Z"/><path class="cls-6" d="M360.6,547.41c-9.36,1.08-10.32,1.8-10.32,11.88v44.4c0,15.84-2.52,24.12-10.56,31.32a39.6,39.6,0,0,1-11.16,7l-1.92-3.6a21.25,21.25,0,0,0,12-15.84c1.08-5.76,1.2-12.72,1.2-22.8V559.29c0-10.08-1.08-10.92-10.92-11.88v-3.36H360.6Z"/><path class="cls-6" d="M411.47,622.05v-3.36c7.8-1,8.76-2.16,7.08-6.72s-4-10.68-6.48-18.24H386.16c-1.92,5.4-3.72,10.08-5.4,15-2.64,7.8-1,8.76,8.88,10v3.36H361.92v-3.36c7.56-1,9.48-1.8,13.68-12.6l24.84-63,3.84-.72c7.55,20.52,15.83,43.2,23.39,64,3.84,10.44,4.92,11.4,13.44,12.36v3.36Zm-12-64c-3.84,10.32-7.92,21.24-11.52,30.72H410.4Z"/><path class="cls-6" d="M513.23,622.05v-3.36c9.84-1,10.2-1.68,10.08-14.52l.12-49c-9.84,22-25.68,56.28-29.88,66.84h-3.12c-4.08-10.92-17.64-43.92-26.76-65.64-2,42-2.16,51.48-2.16,53.76.12,6.72,3.12,7.68,11.28,8.52v3.36H444.36v-3.36c7-.72,9.84-2.16,10.8-8.64.72-5.28.84-9.6,3.95-53.4.48-6.24-.71-8.28-11.27-9.24v-3.36h20.87l26.52,60.84,28.44-60.84h21v3.36c-10.32,1.2-11.64,2.28-11.4,10.68l.48,46.08c.48,12.84.84,13.44,11.4,14.52v3.36Z"/><path class="cls-6" d="M556,622.05v-3.36c9.84-1.08,10.8-1.56,10.8-11.76V559.29c0-10.32-1-10.8-10.8-11.88v-3.36h32.16v3.36c-10,1.08-10.92,1.56-10.92,11.88v47.64c0,10.32,1,10.68,10.92,11.76v3.36Z"/><path class="cls-6" d="M599.75,622.05v-3.36c9.84-1.08,10.8-1.56,10.8-11.76V559.29c0-10.32-1-10.8-10.8-11.88v-3.36h32.16v3.36C622,548.49,621,549,621,559.29v47.64c0,10.32,1,10.68,10.92,11.76v3.36Z"/><path class="cls-6" d="M705.83,603c-.72,3.12-4,15.48-5.16,19.08H642.35v-3.36c11.16-.84,12-1.92,12-11.76v-47.4c0-10.68-1.32-11.28-10.32-12.12v-3.36h36.72c11.28,0,16-.12,17.4-.24.12,3,.6,12,1.08,18.36l-3.6.6a40,40,0,0,0-3.6-9.12c-1.92-4-4.68-4.8-11.88-4.8h-11.4c-3.72,0-4,.36-4,3.84v26.52h13.32c9,0,9.6-1.8,11-10h3.72V594h-3.72c-1.56-8.64-2.52-9.84-11.16-9.84h-13.2V608c0,8.4,2.64,9.12,8.64,9.24h11.16c7.32,0,8.52-1.08,11.16-4.2,2.28-2.52,4.8-7.44,6.48-11Z"/><text class="cls-7" transform="translate(378.01 659.05)">W<tspan class="cls-8" x="21.54" y="0">e Bring Dreams</tspan><tspan x="196.82" y="0"> </tspan><tspan class="cls-9" x="204.38" y="0">T</tspan><tspan class="cls-10" x="216.98" y="0">o Life</tspan></text></svg>